<svg id="Componente_2_2" data-name="Componente 2 – 2" xmlns="http://www.w3.org/2000/svg" width="47.939" height="47.939" viewBox="0 0 47.939 47.939">
  <defs>
    <style>
      .cls-1 {
        fill: #ececec;
      }

      .cls-2 {
        fill: #0a2bff;
        opacity: 0;
      }

      .cls-3 {
        fill: #141c3a;
      }
    </style>
  </defs>
  <path id="Trazado_1090" data-name="Trazado 1090" class="cls-1" d="M47.939,24.277A23.969,23.969,0,1,1,23.969.308,23.969,23.969,0,0,1,47.939,24.277" transform="translate(0 -0.308)"/>
  <path id="Trazado_1631" data-name="Trazado 1631" class="cls-2" d="M1.848,1.232A.924.924,0,1,1,.924.308a.924.924,0,0,1,.924.924" transform="translate(23.045 22.737)"/>
  <path id="Trazado_1091" data-name="Trazado 1091" class="cls-3" d="M11.981,15.591c.073,0,.144-.013.217-.013h5.819a4.8,4.8,0,0,1,2.278.483,2.814,2.814,0,0,1,1.564,2.4,3.908,3.908,0,0,1-.061,1.119,2.334,2.334,0,0,1-1.188,1.6c-.052.029-.1.06-.153.091-.009.006-.015.021-.025.035.042.076.127.087.194.118a2.669,2.669,0,0,1,1.572,2,3.7,3.7,0,0,1-.861,3.281,3.49,3.49,0,0,1-2.1,1.127,9.229,9.229,0,0,1-1.634.127c-1.8,0-3.6,0-5.4,0-.072,0-.144-.01-.216-.016Zm4.409,6.943c-.631,0-1.152.006-1.674,0-.17,0-.23.044-.228.222q.012,1.405,0,2.81c0,.181.05.239.234.236.9-.008,1.8,0,2.691-.008a4.21,4.21,0,0,0,1.06-.111,1.381,1.381,0,0,0,1.035-.989,2.446,2.446,0,0,0,.068-.843,1.217,1.217,0,0,0-.735-1.089,2.222,2.222,0,0,0-.684-.186c-.624-.081-1.252-.017-1.767-.039m-.037-4.765c-.617,0-1.125,0-1.632,0-.166,0-.234.043-.233.221.009.752.008,1.5,0,2.255,0,.171.062.21.219.209.923-.006,1.847,0,2.77-.007A2.99,2.99,0,0,0,18.49,20.3a1.233,1.233,0,0,0,.632-.419,1.28,1.28,0,0,0-.808-2.02,11.879,11.879,0,0,0-1.961-.089" transform="translate(1.841 2.038)"/>
  <path id="Trazado_1092" data-name="Trazado 1092" class="cls-3" d="M27.413,23.683H24.305c-.243,0-.263.024-.231.26a2.124,2.124,0,0,0,.868,1.578,2.534,2.534,0,0,0,2.643.03,1.613,1.613,0,0,0,.488-.538.3.3,0,0,1,.291-.159q1.049.007,2.1,0c.167,0,.225.047.181.223a3.351,3.351,0,0,1-.894,1.493,4.235,4.235,0,0,1-2.7,1.274,5.483,5.483,0,0,1-2.851-.361,3.922,3.922,0,0,1-2.238-2.122,5.918,5.918,0,0,1-.385-2.207,5.928,5.928,0,0,1,.455-2.51,4.016,4.016,0,0,1,2.829-2.328,5.435,5.435,0,0,1,3.324.2,3.886,3.886,0,0,1,2.1,1.947,5.185,5.185,0,0,1,.515,2.473c0,.178-.008.356,0,.534s-.058.218-.219.216c-.66-.006-1.32,0-1.98,0H27.413M26.186,22.05h.158c.568,0,1.134,0,1.7,0,.077,0,.194.025.178-.117a1.856,1.856,0,0,0-.654-1.307,2.291,2.291,0,0,0-1.871-.41,1.589,1.589,0,0,0-.91.442,2.253,2.253,0,0,0-.613,1.152c-.046.225-.037.239.192.239.606,0,1.212,0,1.819,0" transform="translate(3.315 2.433)"/>
  <path id="Trazado_1093" data-name="Trazado 1093" class="cls-3" d="M25.9,17.661c-.818,0-1.635,0-2.453,0-.186,0-.257-.055-.25-.248.013-.376.01-.752,0-1.127,0-.177.065-.227.232-.226q2.481.005,4.964,0c.159,0,.224.051.22.217-.009.382-.012.765,0,1.147.006.187-.068.238-.242.236-.825-.006-1.649,0-2.472,0" transform="translate(3.564 2.113)"/>
</svg>
