<svg id="Componente_4_2" data-name="Componente 4 – 2" xmlns="http://www.w3.org/2000/svg" width="47.939" height="47.939" viewBox="0 0 47.939 47.939">
  <defs>
    <style>
      .cls-1 {
        fill: #ececec;
      }

      .cls-2 {
        fill: #0a2bff;
        opacity: 0;
      }

      .cls-3 {
        fill: #141c3a;
      }
    </style>
  </defs>
  <path id="Trazado_1094" data-name="Trazado 1094" class="cls-1" d="M100.206,23.969A23.969,23.969,0,1,1,76.236,0a23.969,23.969,0,0,1,23.969,23.969" transform="translate(-52.267)"/>
  <path id="Trazado_1633" data-name="Trazado 1633" class="cls-2" d="M54.948,1.34A1.34,1.34,0,1,1,53.607,0a1.34,1.34,0,0,1,1.34,1.34" transform="translate(-29.638 22.629)"/>
  <path id="Trazado_1095" data-name="Trazado 1095" class="cls-3" d="M76.691,13.722c.331.029.662.062.994.083.123.007.163.054.162.174,0,.763,0,1.525,0,2.288,0,.136-.052.168-.178.168-.561,0-1.123-.024-1.682.028a1.073,1.073,0,0,0-.934.505,1.353,1.353,0,0,0-.16.658c-.008.625,0,1.249-.008,1.875,0,.133.057.158.173.157.81,0,1.62,0,2.43,0,.239,0,.27-.027.233.247-.115.848-.22,1.7-.325,2.548-.016.133-.1.141-.2.141q-1.04,0-2.081,0c-.224,0-.225,0-.225.228v6.925c0,.254,0,.254-.249.254H72.113c-.254,0-.255,0-.255-.25V22.857c0-.264,0-.264-.271-.264-.673,0-1.345,0-2.018,0-.151,0-.2-.046-.2-.2q.009-1.27,0-2.541c0-.152.047-.2.2-.2.688.006,1.376,0,2.065,0,.224,0,.224,0,.224-.231,0-.6-.007-1.208,0-1.811a4.9,4.9,0,0,1,.3-1.773,3.216,3.216,0,0,1,2.425-2.028c.17-.038.343-.061.515-.091Z" transform="translate(-49.639 2.108)"/>
</svg>
