<svg id="Componente_5_2" data-name="Componente 5 – 2" xmlns="http://www.w3.org/2000/svg" xmlns:xlink="http://www.w3.org/1999/xlink" width="47.939" height="47.938" viewBox="0 0 47.939 47.938">
  <defs>
    <style>
      .cls-1 {
        fill: #141c3a;
      }

      .cls-2 {
        fill: #ececec;
      }

      .cls-3 {
        fill: #0a2bff;
        opacity: 0;
      }

      .cls-4 {
        clip-path: url(#clip-path);
      }
    </style>
    <clipPath id="clip-path">
      <rect id="Rectángulo_552" data-name="Rectángulo 552" class="cls-1" width="15.538" height="15.539"/>
    </clipPath>
  </defs>
  <path id="Trazado_1090" data-name="Trazado 1090" class="cls-2" d="M47.939,24.277A23.969,23.969,0,1,1,23.969.308,23.969,23.969,0,0,1,47.939,24.277" transform="translate(0 -0.308)"/>
  <path id="Trazado_1634" data-name="Trazado 1634" class="cls-3" d="M1.475,1.046A.738.738,0,1,1,.738.308a.738.738,0,0,1,.738.738" transform="translate(23.232 22.924)"/>
  <g id="Grupo_310" data-name="Grupo 310" transform="translate(17.2 14.292)">
    <g id="Grupo_309" data-name="Grupo 309" class="cls-4" transform="translate(0 0)">
      <path id="Trazado_1628" data-name="Trazado 1628" class="cls-1" d="M10.6,8.262a3.569,3.569,0,0,1,1.355-1.2,4.179,4.179,0,0,1,2.415-.349,3.815,3.815,0,0,1,1.424.42,2.964,2.964,0,0,1,1.391,1.747,7.138,7.138,0,0,1,.337,2.234c.013,1.986,0,3.972.01,5.959,0,.173-.054.233-.227.232-.933-.006-1.867,0-2.8,0-.224,0-.241-.018-.241-.255,0-1.589,0-3.178,0-4.767a6.637,6.637,0,0,0-.086-1.432,2.362,2.362,0,0,0-.2-.607,1.466,1.466,0,0,0-1.494-.714,2.076,2.076,0,0,0-.356.049,1.605,1.605,0,0,0-1.292,1.408,7.464,7.464,0,0,0-.1,1.393c-.01,1.558,0,3.115,0,4.673,0,.26,0,.261-.262.261H7.734c-.256,0-.257,0-.257-.246q0-4.948,0-9.894c0-.188.051-.253.245-.251q1.324.013,2.649,0c.185,0,.241.065.235.242-.01.365,0,.731,0,1.1" transform="translate(-1.992 -1.78)"/>
      <path id="Trazado_1629" data-name="Trazado 1629" class="cls-1" d="M3.59,12.222v4.917c0,.265,0,.266-.258.266-.92,0-1.841-.005-2.761,0-.2,0-.248-.065-.248-.249q.007-4.937,0-9.873c0-.26.01-.269.263-.269H3.332c.257,0,.258,0,.258.268v4.936" transform="translate(-0.086 -1.871)"/>
      <path id="Trazado_1630" data-name="Trazado 1630" class="cls-1" d="M1.875,3.769A1.885,1.885,0,1,1,3.763,1.877,1.9,1.9,0,0,1,1.875,3.769" transform="translate(0 0)"/>
    </g>
  </g>
</svg>
