<svg id="Componente_3_2" data-name="Componente 3 – 2" xmlns="http://www.w3.org/2000/svg" width="47.939" height="47.939" viewBox="0 0 47.939 47.939">
  <defs>
    <style>
      .cls-1 {
        fill: #ececec;
      }

      .cls-2 {
        fill: #0a2bff;
        opacity: 0;
      }

      .cls-3 {
        fill: #141c3a;
      }
    </style>
  </defs>
  <path id="Trazado_1096" data-name="Trazado 1096" class="cls-1" d="M155.477,24.264A23.969,23.969,0,1,1,131.507.295a23.969,23.969,0,0,1,23.969,23.969" transform="translate(-107.538 -0.295)"/>
  <path id="Trazado_1632" data-name="Trazado 1632" class="cls-2" d="M109.175,1.114a.819.819,0,1,1-.819-.819.819.819,0,0,1,.819.819" transform="translate(-84.387 22.856)"/>
  <path id="Trazado_1097" data-name="Trazado 1097" class="cls-3" d="M132.738,31.277h-6.395c-.069-.007-.138-.021-.208-.022a7.772,7.772,0,0,1-1.5-.145,4.671,4.671,0,0,1-3.859-3.619,10.3,10.3,0,0,1-.238-2.385c-.017-.754-.007-1.509-.01-2.263,0-.152-.013-.3-.018-.455v-.211c.006-.1.017-.2.017-.3,0-.82-.007-1.639.014-2.458a11.547,11.547,0,0,1,.17-2.043,4.673,4.673,0,0,1,3.474-3.82,8.777,8.777,0,0,1,2.381-.27c2.218-.018,4.437-.054,6.654.029a7.264,7.264,0,0,1,1.527.207,4.614,4.614,0,0,1,3.4,3.033,6.508,6.508,0,0,1,.362,2.207c.009,2.283.006,4.566,0,6.849a8.375,8.375,0,0,1-.142,1.536,4.773,4.773,0,0,1-1.856,3.08,5.411,5.411,0,0,1-2.883.989c-.3.023-.594.039-.892.059m-3.2-1.632c1.049.017,2.1-.017,3.144-.037a7.932,7.932,0,0,0,1.485-.133,3.041,3.041,0,0,0,2.508-2.314,7.409,7.409,0,0,0,.195-1.863c.022-1.476.022-2.951.017-4.427a23.823,23.823,0,0,0-.114-2.981,3.088,3.088,0,0,0-2.545-2.77,10.928,10.928,0,0,0-2.15-.162q-2.528-.029-5.059,0a12.7,12.7,0,0,0-1.995.132,3.076,3.076,0,0,0-2.642,2.493,8.852,8.852,0,0,0-.162,1.885q-.024,2.829,0,5.657a9.563,9.563,0,0,0,.134,1.748,3.031,3.031,0,0,0,2.351,2.553,7.266,7.266,0,0,0,1.706.182c1.042.021,2.083.053,3.126.037" transform="translate(-105.545 1.698)"/>
  <path id="Trazado_1098" data-name="Trazado 1098" class="cls-3" d="M128.948,26.346a4.646,4.646,0,1,1,4.656-4.631,4.661,4.661,0,0,1-4.656,4.631M125.983,21.7a2.975,2.975,0,1,0,2.981-2.978,2.969,2.969,0,0,0-2.981,2.978" transform="translate(-104.961 2.28)"/>
  <path id="Trazado_1099" data-name="Trazado 1099" class="cls-3" d="M132.643,18.157a1.075,1.075,0,0,1-1.087-1.093,1.1,1.1,0,0,1,1.088-1.1,1.121,1.121,0,0,1,1.106,1.094,1.1,1.1,0,0,1-1.107,1.1" transform="translate(-103.848 2.112)"/>
</svg>
