<svg id="Grupo_209" data-name="Grupo 209" xmlns="http://www.w3.org/2000/svg" width="226.343" height="93.998" viewBox="0 0 226.343 93.998">
  <defs>
    <style>
      .cls-1 {
        fill: #141c3a;
      }
    </style>
  </defs>
  <g id="Grupo_183" data-name="Grupo 183">
    <g id="Grupo_1" data-name="Grupo 1">
      <path id="Trazado_1" data-name="Trazado 1" class="cls-1" d="M316.243,421.1,333.3,387.119l-7.846-15.631-41.5,82.666h15.69l9.687-19.3h23.607L326.034,421.1Z" transform="translate(-283.961 -371.489)"/>
      <path id="Trazado_2" data-name="Trazado 2" class="cls-1" d="M359.338,435.848l.068-.024-1.046-2.077c-10.98-21.883-17.225-34.323-17.582-35.027l-.853-1.682-7.841,15.623.216.428,13.4,26.7a12.175,12.175,0,0,1,1.421,5.285,11.055,11.055,0,0,1-4.241,8.717l-.608.48,6.251,12.457.889-.568a25.235,25.235,0,0,0,11.6-21.075A23.925,23.925,0,0,0,359.338,435.848Z" transform="translate(-286.303 -372.732)"/>
    </g>
  </g>
  <g id="Grupo_184" data-name="Grupo 184" transform="translate(85.263 10.736)">
    <g id="Grupo_3" data-name="Grupo 3" transform="translate(0 0)">
      <path id="Trazado_3" data-name="Trazado 3" class="cls-1" d="M394.485,412l-1.778-5.034H381.219L379.54,412h-5.953l9.789-27.97h6.832L400.076,412Zm-11.471-10.189h7.871l-4.036-11.427Z" transform="translate(-373.587 -382.835)"/>
      <path id="Trazado_4" data-name="Trazado 4" class="cls-1" d="M404.035,411.941V382.774h5.154v29.167Z" transform="translate(-375.069 -382.774)"/>
      <path id="Trazado_5" data-name="Trazado 5" class="cls-1" d="M418.711,404.511q1.037,3.757,5.634,3.757a5.274,5.274,0,0,0,4.475-2l4.154,2.4a9.907,9.907,0,0,1-8.709,4.275,10.748,10.748,0,0,1-7.951-3,10.541,10.541,0,0,1,7.552-18.1,9.531,9.531,0,0,1,7.252,3.036,10.552,10.552,0,0,1,2.857,7.513,12.13,12.13,0,0,1-.2,2.117Zm-.08-3.995H428.82A4.835,4.835,0,0,0,427,397.48a5.218,5.218,0,0,0-3.136-1,5.423,5.423,0,0,0-3.437,1.059A5.052,5.052,0,0,0,418.631,400.516Z" transform="translate(-375.521 -383.216)"/>
      <path id="Trazado_6" data-name="Trazado 6" class="cls-1" d="M439.133,412.363V391.986h5.154v20.377q0,4.4-2.138,6.413t-6.573,1.738V415.56a3.632,3.632,0,0,0,2.7-.639A3.27,3.27,0,0,0,439.133,412.363Zm2.6-22.775a3.077,3.077,0,0,1-2.258-.939,3.032,3.032,0,0,1-.939-2.218,3.1,3.1,0,0,1,.939-2.238,3.049,3.049,0,0,1,2.258-.958,3.005,3.005,0,0,1,2.218.958,3.1,3.1,0,0,1,.939,2.238,3.207,3.207,0,0,1-3.156,3.157Z" transform="translate(-376.605 -382.796)"/>
      <path id="Trazado_7" data-name="Trazado 7" class="cls-1" d="M466.657,409.886a10.549,10.549,0,1,1,0-14.983,10.662,10.662,0,0,1,0,14.983Zm-11.368-3.536a5.2,5.2,0,0,0,3.857,1.558,5.259,5.259,0,0,0,3.875-1.558,5.8,5.8,0,0,0,0-7.911,5.258,5.258,0,0,0-3.875-1.558,5.2,5.2,0,0,0-3.857,1.558,5.857,5.857,0,0,0,0,7.911Z" transform="translate(-377.238 -383.216)"/>
      <path id="Trazado_8" data-name="Trazado 8" class="cls-1" d="M391.067,429.033h5.154V457h-5.154v-2.358a7.732,7.732,0,0,1-6.473,2.917,9.1,9.1,0,0,1-6.892-3.056,11.251,11.251,0,0,1,0-14.983,9.1,9.1,0,0,1,6.892-3.057,7.734,7.734,0,0,1,6.473,2.916Zm-9.489,22.036a5.39,5.39,0,0,0,3.976,1.578,5.323,5.323,0,0,0,3.955-1.578,6.056,6.056,0,0,0,0-8.111,5.323,5.323,0,0,0-3.955-1.578,5.389,5.389,0,0,0-3.976,1.578,6,6,0,0,0,0,8.111Z" transform="translate(-373.648 -385.026)"/>
      <path id="Trazado_9" data-name="Trazado 9" class="cls-1" d="M406.573,449.511q1.037,3.757,5.634,3.757a5.274,5.274,0,0,0,4.475-2l4.154,2.4a9.906,9.906,0,0,1-8.709,4.275,10.746,10.746,0,0,1-7.951-3,10.541,10.541,0,0,1,7.552-18.1,9.531,9.531,0,0,1,7.252,3.036,10.552,10.552,0,0,1,2.857,7.513,12.148,12.148,0,0,1-.2,2.117Zm-.08-3.995h10.189a4.832,4.832,0,0,0-1.819-3.037,5.215,5.215,0,0,0-3.135-1,5.423,5.423,0,0,0-3.437,1.059A5.051,5.051,0,0,0,406.493,445.516Z" transform="translate(-374.93 -385.406)"/>
      <path id="Trazado_10" data-name="Trazado 10" class="cls-1" d="M430.518,443.079q0,.8,1.059,1.3a14.016,14.016,0,0,0,2.577.879,26.579,26.579,0,0,1,3.036.959,5.892,5.892,0,0,1,2.577,1.938,5.363,5.363,0,0,1,1.059,3.4,5.488,5.488,0,0,1-2.3,4.735,9.542,9.542,0,0,1-5.734,1.658q-6.153,0-8.391-4.755l4.475-2.517a3.7,3.7,0,0,0,3.916,2.6q2.757,0,2.757-1.718,0-.8-1.059-1.3a15.191,15.191,0,0,0-2.577-.9,26.667,26.667,0,0,1-3.037-1,6.229,6.229,0,0,1-2.577-1.9,4.985,4.985,0,0,1-1.059-3.256,5.579,5.579,0,0,1,2.178-4.655,8.536,8.536,0,0,1,5.414-1.7,9.051,9.051,0,0,1,4.435,1.1,8.031,8.031,0,0,1,3.156,3.137l-4.4,2.4a3.288,3.288,0,0,0-3.2-2.038,2.929,2.929,0,0,0-1.658.44A1.372,1.372,0,0,0,430.518,443.079Z" transform="translate(-376.061 -385.406)"/>
      <path id="Trazado_11" data-name="Trazado 11" class="cls-1" d="M447.68,434.589a3.207,3.207,0,0,1-3.157-3.156,3.1,3.1,0,0,1,.939-2.239,3.005,3.005,0,0,1,2.218-.958,3.049,3.049,0,0,1,2.258.958,3.1,3.1,0,0,1,.939,2.239,3.033,3.033,0,0,1-.939,2.218A3.078,3.078,0,0,1,447.68,434.589Zm-2.557,22.375V436.986h5.154v19.978Z" transform="translate(-377.04 -384.987)"/>
      <path id="Trazado_12" data-name="Trazado 12" class="cls-1" d="M470.777,437.405h5.034v19.019a8.511,8.511,0,0,1-3.057,7.072,11.457,11.457,0,0,1-7.372,2.437,12.476,12.476,0,0,1-5.694-1.24,8.658,8.658,0,0,1-3.776-3.635l4.4-2.517a6.333,6.333,0,0,0,9.07,1.518,4.679,4.679,0,0,0,1.4-3.636v-2.159a7.529,7.529,0,0,1-6.393,3.038,9.431,9.431,0,0,1-7.092-2.977,10.581,10.581,0,0,1,.02-14.485,9.422,9.422,0,0,1,7.072-3,7.532,7.532,0,0,1,6.393,3.036Zm-9.609,13.6a6.011,6.011,0,0,0,8.031,0,5.647,5.647,0,0,0,0-7.831,6.011,6.011,0,0,0-8.031,0,5.647,5.647,0,0,0,0,7.831Z" transform="translate(-377.523 -385.406)"/>
      <path id="Trazado_13" data-name="Trazado 13" class="cls-1" d="M492.926,436.846a7.239,7.239,0,0,1,5.415,2.2,8.351,8.351,0,0,1,2.137,6.074v12.266h-5.154V445.756a4.093,4.093,0,0,0-1.079-3.057,3.928,3.928,0,0,0-2.877-1.059,4.246,4.246,0,0,0-3.2,1.239,5.151,5.151,0,0,0-1.2,3.716v10.788h-5.154V437.405h5.154v2.237Q488.85,436.847,492.926,436.846Z" transform="translate(-378.856 -385.406)"/>
      <path id="Trazado_14" data-name="Trazado 14" class="cls-1" d="M510.737,443.079q0,.8,1.059,1.3a14.041,14.041,0,0,0,2.577.879,26.613,26.613,0,0,1,3.037.959,5.9,5.9,0,0,1,2.577,1.938,5.358,5.358,0,0,1,1.059,3.4,5.488,5.488,0,0,1-2.3,4.735,9.543,9.543,0,0,1-5.734,1.658q-6.153,0-8.39-4.755l4.475-2.517a3.7,3.7,0,0,0,3.916,2.6q2.757,0,2.757-1.718,0-.8-1.059-1.3a15.192,15.192,0,0,0-2.577-.9,26.745,26.745,0,0,1-3.037-1,6.235,6.235,0,0,1-2.577-1.9,4.985,4.985,0,0,1-1.059-3.256,5.581,5.581,0,0,1,2.178-4.655,8.536,8.536,0,0,1,5.414-1.7,9.05,9.05,0,0,1,4.435,1.1,8.031,8.031,0,0,1,3.156,3.137l-4.4,2.4a3.287,3.287,0,0,0-3.2-2.038,2.928,2.928,0,0,0-1.658.44A1.372,1.372,0,0,0,510.737,443.079Z" transform="translate(-379.966 -385.406)"/>
    </g>
  </g>
</svg>
