<svg xmlns="http://www.w3.org/2000/svg" xmlns:xlink="http://www.w3.org/1999/xlink" width="80.446" height="80.446" viewBox="0 0 80.446 80.446">
  <defs>
    <style>
      .cls-1 {
        fill: #fff;
      }

      .cls-2 {
        fill: #0a2bff;
      }

      .cls-3 {
        clip-path: url(#clip-path);
      }
    </style>
    <clipPath id="clip-path">
      <rect id="Rectángulo_551" data-name="Rectángulo 551" class="cls-1" width="37.592" height="24.691"/>
    </clipPath>
  </defs>
  <g id="Grupo_306" data-name="Grupo 306" transform="translate(-313.446 -3686.92)">
    <path id="Trazado_1623" data-name="Trazado 1623" class="cls-2" d="M80.446,40.223A40.223,40.223,0,1,1,40.223,0,40.223,40.223,0,0,1,80.446,40.223" transform="translate(313.446 3686.92)"/>
    <g id="Grupo_307" data-name="Grupo 307" transform="translate(335.873 3714.797)">
      <g id="Grupo_307-2" data-name="Grupo 307" class="cls-3" transform="translate(0 0)">
        <path id="Trazado_1627" data-name="Trazado 1627" class="cls-1" d="M37.592,21.589a4.083,4.083,0,0,1-1.339,2.217,3.771,3.771,0,0,1-2.433.88c-1.613.006-3.227,0-4.842,0q-12.5,0-25.013,0a3.82,3.82,0,0,1-3.192-1.5A3.326,3.326,0,0,1,.007,21.13Q0,12.344.009,3.562A3.772,3.772,0,0,1,3.634.007c.1,0,.2,0,.295,0Q18.8,0,33.675,0a3.836,3.836,0,0,1,3.208,1.543A4.318,4.318,0,0,1,37.592,3.1ZM5.035,2.61a.628.628,0,0,0,.252.349Q11.756,9.434,18.229,15.9c.485.487.675.488,1.151.01Q25.863,9.429,32.347,2.943c.087-.089.227-.151.223-.333Zm.659,19.458H31.915a.32.32,0,0,0-.143-.236q-3.55-3.556-7.1-7.111c-.205-.205-.312-.169-.5.017-1,1.02-2.018,2.027-3.029,3.037a3.079,3.079,0,0,1-4.671,0c-1-1-2.014-2-3-3.014-.233-.24-.355-.215-.576.008q-3.477,3.5-6.97,6.982a.594.594,0,0,0-.233.316M2.544,3.862V20.6c0,.1,0,.2,0,.293.014.143-.008.337.136.39s.215-.132.3-.223q4.05-4.041,8.1-8.083c.242-.24.233-.364,0-.6Q6.973,8.29,2.883,4.186c-.085-.085-.174-.167-.339-.324m32.53.008c-.153.141-.242.221-.328.3q-4.111,4.108-8.226,8.214c-.229.227-.235.341,0,.572q3.969,3.942,7.92,7.9c.155.155.306.487.506.4s.128-.438.128-.678q0-8.123,0-16.246V3.87" transform="translate(0.001 0.002)"/>
      </g>
    </g>
  </g>
</svg>
