<svg xmlns="http://www.w3.org/2000/svg" width="80.446" height="80.446" viewBox="0 0 80.446 80.446">
  <defs>
    <style>
      .cls-1 {
        fill: #0a2bff;
      }

      .cls-2 {
        fill: #fff;
      }
    </style>
  </defs>
  <g id="Grupo_305" data-name="Grupo 305" transform="translate(-313.446 -3686.92)">
    <path id="Trazado_1623" data-name="Trazado 1623" class="cls-1" d="M80.446,40.223A40.223,40.223,0,1,1,40.223,0,40.223,40.223,0,0,1,80.446,40.223" transform="translate(313.446 3686.92)"/>
    <g id="Grupo_304" data-name="Grupo 304" transform="translate(336.577 3710.053)">
      <path id="Trazado_1624" data-name="Trazado 1624" class="cls-2" d="M28.945,18.239a3.934,3.934,0,0,1,.681,2.319,3.442,3.442,0,0,1-.687,2.236,3.174,3.174,0,0,1-.807.681.188.188,0,0,0,.015.329A3.207,3.207,0,0,1,29.522,25a4.093,4.093,0,0,1,.577,2.226,4.529,4.529,0,0,1-.66,2.422,4.175,4.175,0,0,1-1.051,1.2,4.036,4.036,0,0,1-1.677.763,10.024,10.024,0,0,1-2.1.207h-6.23a.454.454,0,0,1-.455-.455V17.074a.453.453,0,0,1,.455-.453H25.1a4.5,4.5,0,0,1,3.845,1.618M20.89,19.713v2.443a.454.454,0,0,0,.453.453H24.5a2.921,2.921,0,0,0,1.568-.376,1.45,1.45,0,0,0,.6-1.336,1.37,1.37,0,0,0-.771-1.39l-.052-.019a5.493,5.493,0,0,0-1.727-.228H21.343a.454.454,0,0,0-.453.453m0,5.866v3.144a.452.452,0,0,0,.453.453h3.15a3.438,3.438,0,0,0,1.5-.267,1.925,1.925,0,0,0,.974-1.9,1.637,1.637,0,0,0-.945-1.628,3.663,3.663,0,0,0-1.483-.257h-3.2a.454.454,0,0,0-.453.453" transform="translate(-6.349 -7.421)"/>
      <path id="Trazado_1625" data-name="Trazado 1625" class="cls-2" d="M40.809,16.562a16.415,16.415,0,0,0-8.855-4.48c-.5-.089-1.011-.143-1.516-.213H27.567a17.815,17.815,0,0,0-3.33.641c-6.617,2.162-10.677,6.629-12.09,13.463-.1.478-.136.968-.2,1.45V30.16a19.454,19.454,0,0,0,.685,3.423,17.511,17.511,0,0,0,1.212,2.954.709.709,0,0,1,.091.507q-.961,4.338-1.913,8.681c-.019.087-.05.17-.076.256v.068a12.836,12.836,0,0,0,2.019-.412q3.514-.781,7.022-1.593a1.014,1.014,0,0,1,.707.087,16.721,16.721,0,0,0,7.556,1.657,17.057,17.057,0,0,0,16.593-13.95,16.444,16.444,0,0,0-5.035-15.275m2.563,12.092A14.347,14.347,0,0,1,22.187,41.3a1.291,1.291,0,0,0-.982-.13c-1.752.412-3.51.8-5.268,1.2-.341.077-.372.046-.294-.3.387-1.771.772-3.541,1.169-5.308a.923.923,0,0,0-.11-.726,14.108,14.108,0,0,1-1.98-5.9,13.488,13.488,0,0,1,1.436-7.63,13.959,13.959,0,0,1,10.02-7.631,14.354,14.354,0,0,1,16.97,11.4,11.094,11.094,0,0,1,.223,2.379" transform="translate(-11.948 -11.869)"/>
    </g>
  </g>
</svg>
