<?xml version="1.0" encoding="utf-8"?>
<!-- Generator: Adobe Illustrator 28.1.0, SVG Export Plug-In . SVG Version: 6.00 Build 0)  -->
<svg version="1.1" id="Capa_2_00000069385429718368060230000018086046151132206256_"
	 xmlns="http://www.w3.org/2000/svg" xmlns:xlink="http://www.w3.org/1999/xlink" x="0px" y="0px" viewBox="0 0 187.9 187.9"
	 style="enable-background:new 0 0 187.9 187.9;" xml:space="preserve">
<style type="text/css">
	.st0{fill:#0A2BFF;}
</style>
<g>
	<path class="st0" d="M178.1,94c0,46.5-37.7,84.1-84.1,84.1c-19.6,0-37.5-6.7-51.8-17.8l47.4-81.1c2-3.5,7-3.5,9,0l14.6,25.3
		c4,6.9,3.9,15.6-0.6,22.2c-4.3,6.3-10.6,8.9-14.7,10c-2.3,0.6-3.9,2.7-3.9,5.1l0,17.3c0,3.1,2.7,5.5,5.8,5.2
		c8.4-0.9,23.9-4.8,34.1-20.6c10.6-16.4,11.8-37.1,2-54L99.4,26.5c-2.4-4.1-8.3-4.1-10.7,0c-12.9,22.4-46.1,79.9-65.4,113.2
		C14.8,126.5,9.8,110.8,9.8,94C9.8,47.5,47.5,9.8,94,9.8S178.1,47.5,178.1,94z"/>
</g>
</svg>
