<?xml version="1.0" encoding="utf-8"?>
<!-- Generator: Adobe Illustrator 28.0.0, SVG Export Plug-In . SVG Version: 6.00 Build 0)  -->
<svg version="1.1" id="Filled" xmlns="http://www.w3.org/2000/svg" xmlns:xlink="http://www.w3.org/1999/xlink" x="0px" y="0px"
	 viewBox="0 0 512 512" style="enable-background:new 0 0 512 512;" xml:space="preserve">
<style type="text/css">
	.st0{fill:#FFFFFF;}
</style>
<path class="st0" d="M405.3,85.3h-23.5C371.7,35.7,328,0.1,277.3,0h-42.7C184,0.1,140.3,35.7,130.1,85.3h-23.5
	C47.8,85.4,0.1,133.1,0,192v64h512v-64C511.9,133.1,464.2,85.4,405.3,85.3z M174.6,85.3c9-25.5,33-42.6,60.1-42.7h42.7
	c27,0.1,51.1,17.2,60.1,42.7H174.6z"/>
<path class="st0" d="M277.3,320c0,11.8-9.6,21.3-21.3,21.3c-11.8,0-21.3-9.6-21.3-21.3v-21.3H0v106.7
	C0.1,464.2,47.8,511.9,106.7,512h298.7c58.9-0.1,106.6-47.8,106.7-106.7V298.7H277.3V320z"/>
</svg>
