<svg id="Componente_2_5" data-name="Componente 2 – 5" xmlns="http://www.w3.org/2000/svg" width="43.332" height="43.331" viewBox="0 0 43.332 43.331">
  <path id="Trazado_1090" data-name="Trazado 1090" d="M43.331,21.974A21.666,21.666,0,1,1,21.666.308,21.665,21.665,0,0,1,43.331,21.974" transform="translate(0 -0.308)" fill="#ececec"/>
  <path id="Trazado_1631" data-name="Trazado 1631" d="M1.67,1.143A.835.835,0,1,1,.835.308a.835.835,0,0,1,.835.835" transform="translate(20.831 20.523)" fill="#0a2bff" opacity="0"/>
  <path id="Trazado_1091" data-name="Trazado 1091" d="M11.981,15.59c.066,0,.13-.011.2-.011h5.26a4.334,4.334,0,0,1,2.059.437,2.544,2.544,0,0,1,1.414,2.173,3.532,3.532,0,0,1-.055,1.011,2.11,2.11,0,0,1-1.074,1.447c-.047.026-.093.054-.139.082-.008.005-.014.019-.023.031.038.069.115.078.175.106a2.412,2.412,0,0,1,1.421,1.81,3.339,3.339,0,0,1-.778,2.966,3.155,3.155,0,0,1-1.9,1.019,8.343,8.343,0,0,1-1.477.115c-1.628,0-3.256,0-4.884,0-.065,0-.13-.009-.195-.015Zm3.985,6.275c-.57,0-1.042.005-1.513,0-.153,0-.208.04-.206.2q.011,1.27,0,2.54c0,.164.045.216.212.214.811-.007,1.623,0,2.433-.007a3.805,3.805,0,0,0,.958-.1,1.249,1.249,0,0,0,.935-.894,2.211,2.211,0,0,0,.062-.762,1.1,1.1,0,0,0-.664-.984,2.008,2.008,0,0,0-.618-.168c-.564-.073-1.131-.016-1.6-.035m-.033-4.307c-.558,0-1.017,0-1.476,0-.15,0-.212.039-.211.2.008.68.007,1.359,0,2.039,0,.154.056.19.2.189.834-.005,1.669,0,2.5-.006a2.7,2.7,0,0,0,.915-.135,1.114,1.114,0,0,0,.571-.379,1.157,1.157,0,0,0-.73-1.826,10.737,10.737,0,0,0-1.773-.08" transform="translate(0.512 0.345)" fill="#141c3a"/>
  <path id="Trazado_1092" data-name="Trazado 1092" d="M26.852,23.15H24.043c-.22,0-.238.022-.209.235a1.92,1.92,0,0,0,.784,1.427,2.29,2.29,0,0,0,2.389.027,1.458,1.458,0,0,0,.441-.486.267.267,0,0,1,.263-.144q.948.006,1.9,0c.151,0,.2.043.164.2a3.029,3.029,0,0,1-.808,1.349,3.828,3.828,0,0,1-2.438,1.151,4.956,4.956,0,0,1-2.577-.326,3.545,3.545,0,0,1-2.023-1.918,5.349,5.349,0,0,1-.348-1.995,5.358,5.358,0,0,1,.411-2.269,3.63,3.63,0,0,1,2.557-2.1,4.913,4.913,0,0,1,3,.179,3.513,3.513,0,0,1,1.9,1.76,4.687,4.687,0,0,1,.465,2.236c0,.161-.007.322,0,.483s-.052.2-.2.195c-.6-.005-1.193,0-1.789,0H26.852m-1.11-1.476h.143c.513,0,1.025,0,1.538,0,.07,0,.175.023.161-.105a1.678,1.678,0,0,0-.591-1.181,2.071,2.071,0,0,0-1.691-.37,1.437,1.437,0,0,0-.823.4,2.037,2.037,0,0,0-.554,1.042c-.042.2-.033.216.173.216.547,0,1.1,0,1.644,0" transform="translate(0.923 0.455)" fill="#141c3a"/>
  <path id="Trazado_1093" data-name="Trazado 1093" d="M25.637,17.507c-.739,0-1.478,0-2.217,0-.168,0-.233-.05-.226-.224.011-.34.009-.68,0-1.019,0-.16.058-.205.21-.2q2.243,0,4.487,0c.144,0,.2.046.2.2-.008.345-.01.691,0,1.037.005.169-.062.215-.219.214-.746-.005-1.49,0-2.235,0" transform="translate(0.992 0.366)" fill="#141c3a"/>
</svg>
