<?xml version="1.0" encoding="utf-8"?>
<!-- Generator: Adobe Illustrator 27.9.0, SVG Export Plug-In . SVG Version: 6.00 Build 0)  -->
<svg version="1.1" id="Capa_1" xmlns="http://www.w3.org/2000/svg" xmlns:xlink="http://www.w3.org/1999/xlink" x="0px" y="0px"
	 viewBox="0 0 92 24" style="enable-background:new 0 0 92 24;" xml:space="preserve">
<style type="text/css">
	.st0{fill:url(#Rectángulo_1_00000155145669203093534320000013015103236395482302_);}
	.st1{enable-background:new    ;}
	.st2{fill:#FFFFFF;}
	.st3{clip-path:url(#SVGID_00000087387784769672902560000009211174893834214276_);}
	.st4{fill:#121112;}
</style>
<g id="Grupo_262" transform="translate(-28.515 -5.599)">
	
		<linearGradient id="Rectángulo_1_00000023245493108843119320000004210780672053560497_" gradientUnits="userSpaceOnUse" x1="-1828.2971" y1="82.1589" x2="-1827.2742" y2="83.2698" gradientTransform="matrix(92 0 0 24 168227.75 -1968.4014)">
		<stop  offset="0" style="stop-color:#0A2BFF"/>
		<stop  offset="0.674" style="stop-color:#0A2BFF"/>
		<stop  offset="1" style="stop-color:#FFFFFF"/>
	</linearGradient>
	<path id="Rectángulo_1" style="fill:url(#Rectángulo_1_00000023245493108843119320000004210780672053560497_);" d="M40.5,5.6h68
		c6.6,0,12,5.4,12,12l0,0c0,6.6-5.4,12-12,12h-68c-6.6,0-12-5.4-12-12l0,0C28.5,11,33.9,5.6,40.5,5.6z"/>
	<g class="st1">
		<path class="st2" d="M35.7,15.2c0.3-0.5,0.7-1,1.3-1.3c0.5-0.3,1.1-0.5,1.8-0.5c0.8,0,1.5,0.2,2.1,0.7c0.6,0.4,1,1,1.2,1.8h-1.9
			c-0.1-0.3-0.3-0.5-0.6-0.7S39.1,15,38.7,15c-0.5,0-1,0.2-1.3,0.5c-0.3,0.5-0.4,1-0.4,1.6s0.2,1.1,0.5,1.5s0.8,0.5,1.3,0.5
			c0.3,0,0.6-0.1,0.9-0.2c0.3-0.2,0.5-0.4,0.6-0.7h1.9C42,19,41.6,19.6,41,20c-0.6,0.4-1.3,0.7-2.1,0.7c-0.7,0-1.3-0.2-1.8-0.5
			s-1-0.7-1.3-1.3s-0.5-1.2-0.5-1.8S35.4,15.8,35.7,15.2z"/>
		<path class="st2" d="M44.2,20.3c-0.4-0.2-0.8-0.6-1-1s-0.4-0.9-0.4-1.5s0.1-1.1,0.4-1.5c0.3-0.4,0.6-0.8,1-1s0.9-0.4,1.5-0.4
			c0.5,0,1,0.1,1.5,0.4c0.4,0.2,0.8,0.6,1,1c0.3,0.4,0.4,0.9,0.4,1.5s-0.1,1.1-0.4,1.5c-0.3,0.4-0.6,0.8-1,1s-0.9,0.3-1.5,0.3
			S44.6,20.6,44.2,20.3z M46.5,18.8c0.2-0.2,0.3-0.6,0.3-1s-0.1-0.8-0.3-1s-0.5-0.4-0.8-0.4s-0.6,0.1-0.8,0.4
			c-0.2,0.2-0.3,0.6-0.3,1s0.1,0.8,0.3,1s0.5,0.4,0.8,0.4S46.3,19.1,46.5,18.8z"/>
		<path class="st2" d="M54.5,15.6c0.4,0.4,0.6,1,0.6,1.7v3.3h-1.7v-3c0-0.4-0.1-0.7-0.3-0.9c-0.2-0.2-0.5-0.3-0.8-0.3
			s-0.6,0.1-0.8,0.3c-0.2,0.2-0.3,0.5-0.3,0.9v3h-1.7V15h1.7v0.7c0.2-0.2,0.4-0.4,0.7-0.6c0.3-0.1,0.6-0.2,1-0.2
			C53.6,15,54.1,15.2,54.5,15.6z"/>
		<path class="st2" d="M59.4,19.1v1.5h-0.9c-0.6,0-1.1-0.2-1.4-0.5c-0.3-0.3-0.5-0.8-0.5-1.5v-2.2h-0.7V15h0.7v-1.4h1.7V15h1.1v1.4
			h-1.1v2.2c0,0.2,0,0.3,0.1,0.4s0.2,0.1,0.4,0.1H59.4z"/>
		<path class="st2" d="M60.3,16.3c0.2-0.4,0.5-0.8,0.9-1s0.8-0.4,1.2-0.4s0.7,0.1,1,0.2c0.3,0.2,0.5,0.4,0.7,0.6V15h1.7v5.6h-1.7
			v-0.8c-0.2,0.3-0.4,0.5-0.7,0.6s-0.6,0.2-1,0.2c-0.5,0-0.9-0.1-1.2-0.4c-0.4-0.2-0.7-0.6-0.9-1S60,18.4,60,17.8
			S60.1,16.7,60.3,16.3z M63.8,16.8c-0.2-0.2-0.5-0.4-0.9-0.4c-0.3,0-0.6,0.1-0.9,0.4c-0.2,0.2-0.4,0.6-0.4,1s0.1,0.8,0.4,1
			c0.2,0.2,0.5,0.4,0.9,0.4c0.3,0,0.6-0.1,0.9-0.4c0.2-0.2,0.4-0.6,0.4-1S64,17,63.8,16.8z M64.3,13.6l-2.4,1v-1.2l2.4-1.2V13.6z"/>
		<path class="st2" d="M67.1,16.3c0.2-0.4,0.6-0.8,1-1s0.9-0.4,1.5-0.4c0.7,0,1.3,0.2,1.8,0.5c0.5,0.4,0.8,0.9,0.9,1.6h-1.8
			c-0.2-0.4-0.4-0.6-0.9-0.6c-0.3,0-0.6,0.1-0.8,0.4s-0.3,0.6-0.3,1s0.1,0.8,0.3,1s0.4,0.4,0.8,0.4s0.7-0.2,0.9-0.6h1.8
			c-0.1,0.7-0.5,1.2-0.9,1.5c-0.5,0.4-1.1,0.6-1.8,0.6c-0.5,0-1-0.1-1.5-0.3c-0.4-0.2-0.8-0.6-1-1s-0.4-0.9-0.4-1.5
			S66.9,16.7,67.1,16.3z"/>
		<path class="st2" d="M76.3,19.1v1.5h-0.9c-0.6,0-1.1-0.2-1.4-0.5s-0.5-0.8-0.5-1.5v-2.2h-0.7V15h0.7v-1.4h1.7V15h1.1v1.4h-1.1v2.2
			c0,0.2,0,0.3,0.1,0.4s0.2,0.1,0.4,0.1H76.3z"/>
		<path class="st2" d="M77.2,16.3c0.2-0.4,0.5-0.8,0.9-1s0.8-0.4,1.2-0.4c0.4,0,0.7,0.1,1,0.2s0.5,0.4,0.7,0.6V15h1.7v5.6H81v-0.8
			c-0.2,0.3-0.4,0.5-0.7,0.6c-0.3,0.2-0.6,0.2-1,0.2c-0.5,0-0.9-0.1-1.2-0.4c-0.4-0.2-0.7-0.6-0.9-1s-0.3-0.9-0.3-1.5
			S77,16.7,77.2,16.3z M80.7,16.8c-0.2-0.2-0.5-0.4-0.9-0.4s-0.6,0.1-0.9,0.4s-0.4,0.6-0.4,1s0.1,0.8,0.4,1s0.5,0.4,0.9,0.4
			s0.6-0.1,0.9-0.4c0.2-0.2,0.4-0.6,0.4-1S80.9,17,80.7,16.8z"/>
		<path class="st2" d="M92.8,15.6c0.4,0.4,0.6,1,0.6,1.8v3.3h-1.7v-3c0-0.4-0.1-0.6-0.3-0.8c-0.2-0.2-0.5-0.3-0.8-0.3
			s-0.6,0.1-0.8,0.3c-0.2,0.2-0.3,0.5-0.3,0.8v3h-1.7v-3c0-0.4-0.1-0.6-0.3-0.8c-0.2-0.2-0.5-0.3-0.8-0.3s-0.6,0.1-0.8,0.3
			c-0.2,0.2-0.3,0.5-0.3,0.8v3H84V15h1.7v0.7c0.2-0.2,0.4-0.4,0.7-0.6c0.3-0.1,0.6-0.2,1-0.2s0.8,0.1,1.1,0.3s0.6,0.4,0.8,0.8
			c0.2-0.3,0.5-0.6,0.8-0.8s0.7-0.3,1.1-0.3C91.8,15,92.4,15.2,92.8,15.6z"/>
		<path class="st2" d="M99.8,18.2h-3.9c0,0.3,0.1,0.6,0.3,0.8c0.2,0.2,0.4,0.3,0.7,0.3c0.4,0,0.7-0.2,0.9-0.5h1.8
			c-0.1,0.4-0.3,0.7-0.5,1s-0.5,0.5-0.9,0.7s-0.8,0.2-1.2,0.2c-0.5,0-1-0.1-1.5-0.3c-0.4-0.2-0.8-0.6-1-1s-0.4-0.9-0.4-1.5
			s0.1-1.1,0.4-1.5c0.2-0.4,0.6-0.8,1-1S96.4,15,97,15c0.5,0,1,0.1,1.4,0.3s0.7,0.6,1,1c0.2,0.4,0.4,0.9,0.4,1.5
			C99.8,17.9,99.8,18,99.8,18.2z M98.1,17.3c0-0.3-0.1-0.5-0.3-0.7c-0.2-0.2-0.5-0.3-0.8-0.3s-0.5,0.1-0.7,0.2
			C96.1,16.7,96,17,96,17.3H98.1z"/>
	</g>
	<g id="Grupo_260" transform="translate(107.954 14.808)">
		<g id="Grupo_368" transform="translate(-3.817 -3.588)">
			<circle id="Elipse_2" class="st2" cx="6.4" cy="6.4" r="6"/>
			<g id="Grupo_259" transform="translate(2.864 3.294)">
				<g id="Grupo_258" transform="translate(0 0)">
					<g>
						<g>
							<defs>
								<rect id="SVGID_1_" x="0" y="0" width="6.7" height="6.7"/>
							</defs>
							<clipPath id="SVGID_00000152230028456791776940000017575435647096554633_">
								<use xlink:href="#SVGID_1_"  style="overflow:visible;"/>
							</clipPath>
							<g id="Grupo_257" style="clip-path:url(#SVGID_00000152230028456791776940000017575435647096554633_);">
								<path id="Trazado_1088" class="st4" d="M6.7,4.5H5.4V1.2H2.1V0h4.2c0.2,0,0.3,0.2,0.3,0.3L6.7,4.5z"/>
								
									<rect id="Rectángulo_531" x="-0.7" y="2.8" transform="matrix(0.7071 -0.7071 0.7071 0.7071 -1.4539 3.2819)" class="st4" width="7.9" height="1.2"/>
							</g>
						</g>
					</g>
				</g>
			</g>
		</g>
	</g>
</g>
</svg>
