<svg id="Componente_4_5" data-name="Componente 4 – 5" xmlns="http://www.w3.org/2000/svg" width="43.332" height="43.331" viewBox="0 0 43.332 43.331">
  <path id="Trazado_1094" data-name="Trazado 1094" d="M95.6,21.666A21.666,21.666,0,1,1,73.933,0,21.665,21.665,0,0,1,95.6,21.666" transform="translate(-52.267)" fill="#ececec"/>
  <path id="Trazado_1633" data-name="Trazado 1633" d="M54.69,1.212A1.212,1.212,0,1,1,53.479,0,1.212,1.212,0,0,1,54.69,1.212" transform="translate(-31.813 20.454)" fill="#0a2bff" opacity="0"/>
  <path id="Trazado_1095" data-name="Trazado 1095" d="M75.987,13.722c.3.026.6.056.9.075.112.006.147.049.146.157,0,.689,0,1.379,0,2.068,0,.123-.047.152-.161.152-.507,0-1.015-.022-1.52.025a.969.969,0,0,0-.845.457,1.223,1.223,0,0,0-.145.594c-.007.565,0,1.129-.007,1.695,0,.12.051.143.156.142.732,0,1.464,0,2.2,0,.216,0,.244-.024.211.223-.1.766-.2,1.535-.294,2.3-.015.12-.089.127-.182.127q-.94,0-1.881,0c-.2,0-.2,0-.2.206v6.26c0,.229,0,.229-.225.229H71.85c-.229,0-.23,0-.23-.226V21.979c0-.239,0-.239-.245-.239-.608,0-1.216,0-1.824,0-.137,0-.181-.042-.18-.18q.008-1.148,0-2.3c0-.138.043-.182.18-.18.621.005,1.244,0,1.867,0,.2,0,.2,0,.2-.209,0-.545-.006-1.092,0-1.637a4.431,4.431,0,0,1,.273-1.6A2.907,2.907,0,0,1,74.086,13.8c.153-.034.31-.055.465-.082Z" transform="translate(-51.535 0.587)" fill="#141c3a"/>
</svg>
