<?xml version="1.0" encoding="utf-8"?>
<!-- Generator: Adobe Illustrator 27.7.0, SVG Export Plug-In . SVG Version: 6.00 Build 0)  -->
<svg version="1.1" id="Capa_2_00000128467474882799164450000009566017111526852796_"
	 xmlns="http://www.w3.org/2000/svg" xmlns:xlink="http://www.w3.org/1999/xlink" x="0px" y="0px" viewBox="0 0 32 32"
	 style="enable-background:new 0 0 32 32;" xml:space="preserve">
<style type="text/css">
	.st0{fill:#8F8F8F;}
</style>
<g id="Capa_1-2">
	<path class="st0" d="M16,0.7C7.6,0.7,0.7,7.6,0.7,16S7.6,31.3,16,31.3S31.3,24.4,31.3,16S24.4,0.7,16,0.7z M12.2,19.3L9.9,24H6.1
		l10-19.9L18,7.8L13.9,16h2.4l1.7,3.3L12.2,19.3L12.2,19.3z M21.3,26.5l-0.2,0.1l-1.5-3l0.1-0.1c0.6-0.5,1-1.3,1-2.1
		c0-0.4-0.1-0.8-0.3-1.3c-0.2-0.4-3.2-6.3-3.2-6.4l-0.1-0.1L19,9.9l0.2,0.4c0.1,0.2,1.6,3.2,4.2,8.4l0.3,0.5l0,0
		c0.3,0.7,0.4,1.4,0.4,2.2C24,23.5,23,25.4,21.3,26.5L21.3,26.5z"/>
</g>
</svg>
