<?xml version="1.0" encoding="UTF-8"?>
<svg id="Capa_2" data-name="Capa 2" xmlns="http://www.w3.org/2000/svg" viewBox="0 0 103.46 103.47">
  <defs>
    <style>
      .cls-1 {
        fill: #8f8f8f;
      }
    </style>
  </defs>
  <g id="Capa_1-2" data-name="Capa 1">
    <path class="cls-1" d="m51.73,0C23.16,0,0,23.16,0,51.74s23.16,51.73,51.73,51.73,51.73-23.16,51.73-51.73S80.31,0,51.73,0Zm-12.86,62.99l-7.89,15.7h-12.77L52,11.4l6.39,12.72-13.89,27.66h7.97l5.63,11.2h-19.22Zm30.72,24.47l-.73.46-5.09-10.14.5-.39c2.19-1.74,3.45-4.32,3.45-7.1,0-1.29-.35-2.62-1.15-4.3-.71-1.43-10.8-21.51-10.92-21.74l-.17-.35,6.39-12.72.69,1.36c.29.58,5.37,10.7,14.31,28.52l.85,1.68-.05.02c.94,2.33,1.4,4.86,1.36,7.52-.08,7.01-3.61,13.43-9.44,17.15Z"/>
  </g>
</svg>