<svg id="Componente_5_5" data-name="Componente 5 – 5" xmlns="http://www.w3.org/2000/svg" xmlns:xlink="http://www.w3.org/1999/xlink" width="43.332" height="43.331" viewBox="0 0 43.332 43.331">
  <defs>
    <clipPath id="clip-path">
      <rect id="Rectángulo_552" data-name="Rectángulo 552" width="14.045" height="14.046" fill="#141c3a"/>
    </clipPath>
  </defs>
  <path id="Trazado_1090" data-name="Trazado 1090" d="M43.331,21.974A21.666,21.666,0,1,1,21.666.308,21.665,21.665,0,0,1,43.331,21.974" transform="translate(0 -0.308)" fill="#ececec"/>
  <path id="Trazado_1634" data-name="Trazado 1634" d="M1.334.975A.667.667,0,1,1,.667.308a.667.667,0,0,1,.667.667" transform="translate(20.999 20.691)" fill="#0a2bff" opacity="0"/>
  <g id="Grupo_310" data-name="Grupo 310" transform="translate(15.547 12.919)">
    <g id="Grupo_309" data-name="Grupo 309" transform="translate(0 0)" clip-path="url(#clip-path)">
      <path id="Trazado_1628" data-name="Trazado 1628" d="M10.3,8.109a3.226,3.226,0,0,1,1.225-1.082,3.777,3.777,0,0,1,2.182-.316,3.448,3.448,0,0,1,1.287.38A2.679,2.679,0,0,1,16.25,8.671a6.452,6.452,0,0,1,.3,2.019c.012,1.8,0,3.591.009,5.386,0,.156-.048.21-.2.209-.843-.005-1.687,0-2.531,0-.2,0-.218-.016-.218-.23,0-1.436,0-2.873,0-4.309a6,6,0,0,0-.078-1.294,2.135,2.135,0,0,0-.185-.549,1.325,1.325,0,0,0-1.35-.645,1.876,1.876,0,0,0-.322.044,1.451,1.451,0,0,0-1.168,1.273,6.747,6.747,0,0,0-.094,1.259c-.009,1.408,0,2.816,0,4.224,0,.235,0,.236-.237.236H7.709c-.231,0-.233,0-.233-.223q0-4.472,0-8.943c0-.17.046-.229.221-.227q1.2.012,2.394,0c.167,0,.217.058.213.219-.009.33,0,.66,0,.99" transform="translate(-2.518 -2.25)" fill="#141c3a"/>
      <path id="Trazado_1629" data-name="Trazado 1629" d="M3.276,11.722v4.445c0,.239,0,.241-.233.241-.832,0-1.664,0-2.5,0-.176,0-.224-.058-.224-.225q.006-4.462,0-8.924c0-.235.009-.243.237-.243H3.043c.233,0,.233,0,.233.242v4.462" transform="translate(-0.109 -2.365)" fill="#141c3a"/>
      <path id="Trazado_1630" data-name="Trazado 1630" d="M1.7,3.407A1.7,1.7,0,1,1,3.4,1.7,1.72,1.72,0,0,1,1.7,3.407" transform="translate(0 0)" fill="#141c3a"/>
    </g>
  </g>
</svg>
