<svg id="Componente_3_5" data-name="Componente 3 – 5" xmlns="http://www.w3.org/2000/svg" width="43.332" height="43.331" viewBox="0 0 43.332 43.331">
  <path id="Trazado_1096" data-name="Trazado 1096" d="M150.869,21.961A21.666,21.666,0,1,1,129.2.3a21.665,21.665,0,0,1,21.666,21.666" transform="translate(-107.538 -0.295)" fill="#ececec"/>
  <path id="Trazado_1632" data-name="Trazado 1632" d="M109.018,1.035a.74.74,0,1,1-.74-.74.74.74,0,0,1,.74.74" transform="translate(-86.612 20.631)" fill="#0a2bff" opacity="0"/>
  <path id="Trazado_1097" data-name="Trazado 1097" d="M131.563,29.546h-5.78c-.063-.006-.125-.019-.188-.02a7.025,7.025,0,0,1-1.355-.131,4.222,4.222,0,0,1-3.488-3.271,9.307,9.307,0,0,1-.215-2.155c-.016-.682-.006-1.364-.009-2.046,0-.138-.011-.274-.017-.411V21.32c.005-.09.016-.179.016-.268,0-.741-.006-1.482.013-2.222a10.438,10.438,0,0,1,.153-1.847,4.223,4.223,0,0,1,3.14-3.453,7.933,7.933,0,0,1,2.152-.244c2.005-.017,4.011-.049,6.015.026a6.566,6.566,0,0,1,1.381.187,4.17,4.17,0,0,1,3.071,2.741,5.882,5.882,0,0,1,.327,1.995c.008,2.064.005,4.127,0,6.191a7.571,7.571,0,0,1-.128,1.388,4.314,4.314,0,0,1-1.678,2.784,4.891,4.891,0,0,1-2.606.894c-.268.021-.537.035-.806.053m-2.9-1.476c.948.016,1.895-.016,2.842-.033a7.169,7.169,0,0,0,1.342-.12,2.749,2.749,0,0,0,2.267-2.092,6.7,6.7,0,0,0,.176-1.684c.02-1.334.02-2.667.016-4a21.537,21.537,0,0,0-.1-2.695,2.791,2.791,0,0,0-2.3-2.5,9.878,9.878,0,0,0-1.944-.146q-2.285-.027-4.573,0a11.478,11.478,0,0,0-1.8.119,2.781,2.781,0,0,0-2.388,2.253,8,8,0,0,0-.146,1.7q-.022,2.557,0,5.114a8.643,8.643,0,0,0,.121,1.58,2.74,2.74,0,0,0,2.125,2.308,6.567,6.567,0,0,0,1.542.165c.942.019,1.883.048,2.826.033" transform="translate(-106.983 0.26)" fill="#141c3a"/>
  <path id="Trazado_1098" data-name="Trazado 1098" d="M128.5,25.454a4.2,4.2,0,1,1,4.209-4.186,4.213,4.213,0,0,1-4.209,4.186m-2.68-4.2a2.689,2.689,0,1,0,2.695-2.691,2.684,2.684,0,0,0-2.695,2.691" transform="translate(-106.821 0.422)" fill="#141c3a"/>
  <path id="Trazado_1099" data-name="Trazado 1099" d="M132.538,17.946a.972.972,0,0,1-.982-.988.994.994,0,0,1,.983-1,1.013,1.013,0,0,1,1,.989.994.994,0,0,1-1,.995" transform="translate(-106.511 0.375)" fill="#141c3a"/>
</svg>
