<svg xmlns="http://www.w3.org/2000/svg" width="71.981" height="29.893" viewBox="0 0 71.981 29.893">
  <g id="Grupo_5" data-name="Grupo 5" transform="translate(0 0)">
    <g id="Grupo_2" data-name="Grupo 2" transform="translate(0 0)">
      <g id="Grupo_1" data-name="Grupo 1">
        <path id="Trazado_1" data-name="Trazado 1" d="M294.227,387.267l5.425-10.807-2.5-4.971-13.2,26.289h4.99l3.081-6.137h7.508l-2.2-4.374Z" transform="translate(-283.961 -371.489)" fill="#fff"/>
        <path id="Trazado_2" data-name="Trazado 2" d="M340.751,409.381l.022-.008-.333-.66c-3.492-6.959-5.478-10.915-5.591-11.139l-.271-.535-2.494,4.968.069.136,4.263,8.492a3.872,3.872,0,0,1,.452,1.681,3.516,3.516,0,0,1-1.349,2.772l-.193.153,1.988,3.961.283-.181a8.024,8.024,0,0,0,3.689-6.7A7.607,7.607,0,0,0,340.751,409.381Z" transform="translate(-317.524 -389.309)" fill="#fff"/>
      </g>
    </g>
    <g id="Grupo_4" data-name="Grupo 4" transform="translate(27.115 3.414)">
      <g id="Grupo_3" data-name="Grupo 3" transform="translate(0 0)">
        <path id="Trazado_3" data-name="Trazado 3" d="M380.233,392.928l-.565-1.6h-3.654l-.534,1.6h-1.893l3.113-8.895h2.173l3.138,8.895Zm-3.648-3.24h2.5l-1.283-3.634Z" transform="translate(-373.587 -383.652)" fill="#fff"/>
        <path id="Trazado_4" data-name="Trazado 4" d="M404.035,392.05v-9.276h1.639v9.276Z" transform="translate(-394.823 -382.774)" fill="#fff"/>
        <path id="Trazado_5" data-name="Trazado 5" d="M415.032,395.874a1.628,1.628,0,0,0,1.792,1.195,1.678,1.678,0,0,0,1.423-.635l1.321.762a3.151,3.151,0,0,1-2.77,1.36,3.418,3.418,0,0,1-2.529-.953,3.352,3.352,0,0,1,2.4-5.756,3.031,3.031,0,0,1,2.306.965,3.356,3.356,0,0,1,.909,2.389,3.867,3.867,0,0,1-.064.673Zm-.025-1.27h3.24a1.537,1.537,0,0,0-.578-.966,1.66,1.66,0,0,0-1-.318,1.724,1.724,0,0,0-1.093.337A1.606,1.606,0,0,0,415.007,394.6Z" transform="translate(-401.297 -389.101)" fill="#fff"/>
        <path id="Trazado_6" data-name="Trazado 6" d="M436.708,392.5v-6.48h1.639v6.48a2.268,2.268,0,0,1-2.77,2.592v-1.576a1.155,1.155,0,0,0,.858-.2A1.04,1.04,0,0,0,436.708,392.5Zm.826-7.243a.98.98,0,0,1-.718-.3.965.965,0,0,1-.3-.705.986.986,0,0,1,.3-.712.97.97,0,0,1,.718-.3.955.955,0,0,1,.705.3.987.987,0,0,1,.3.712,1.02,1.02,0,0,1-1,1Z" transform="translate(-416.823 -383.096)" fill="#fff"/>
        <path id="Trazado_7" data-name="Trazado 7" d="M454.34,397.583a3.355,3.355,0,1,1,0-4.765,3.39,3.39,0,0,1,0,4.765Zm-3.615-1.124a1.653,1.653,0,0,0,1.227.5,1.673,1.673,0,0,0,1.232-.5,1.845,1.845,0,0,0,0-2.516,1.673,1.673,0,0,0-1.232-.5,1.653,1.653,0,0,0-1.227.5,1.863,1.863,0,0,0,0,2.516Z" transform="translate(-425.904 -389.101)" fill="#fff"/>
        <path id="Trazado_8" data-name="Trazado 8" d="M380,429.033h1.639v8.9H380v-.75a2.459,2.459,0,0,1-2.059.928,2.893,2.893,0,0,1-2.192-.972,3.578,3.578,0,0,1,0-4.765,2.892,2.892,0,0,1,2.192-.972,2.459,2.459,0,0,1,2.059.927Zm-3.018,7.008a1.714,1.714,0,0,0,1.264.5,1.693,1.693,0,0,0,1.258-.5,1.926,1.926,0,0,0,0-2.579,1.693,1.693,0,0,0-1.258-.5,1.714,1.714,0,0,0-1.264.5,1.908,1.908,0,0,0,0,2.579Z" transform="translate(-374.464 -415.038)" fill="#fff"/>
        <path id="Trazado_9" data-name="Trazado 9" d="M402.894,440.874a1.628,1.628,0,0,0,1.792,1.195,1.677,1.677,0,0,0,1.423-.635l1.321.762a3.151,3.151,0,0,1-2.77,1.36,3.417,3.417,0,0,1-2.529-.953,3.352,3.352,0,0,1,2.4-5.756,3.031,3.031,0,0,1,2.306.965,3.356,3.356,0,0,1,.908,2.389,3.857,3.857,0,0,1-.064.673Zm-.025-1.27h3.24a1.537,1.537,0,0,0-.579-.966,1.658,1.658,0,0,0-1-.318,1.726,1.726,0,0,0-1.093.337A1.608,1.608,0,0,0,402.869,439.6Z" transform="translate(-392.832 -420.487)" fill="#fff"/>
        <path id="Trazado_10" data-name="Trazado 10" d="M426.349,438.828q0,.254.337.413a4.461,4.461,0,0,0,.82.28,8.481,8.481,0,0,1,.966.3,1.875,1.875,0,0,1,.82.616,1.705,1.705,0,0,1,.337,1.08,1.745,1.745,0,0,1-.731,1.506,3.034,3.034,0,0,1-1.823.527,2.672,2.672,0,0,1-2.668-1.512l1.423-.8a1.178,1.178,0,0,0,1.245.826q.877,0,.877-.546,0-.254-.337-.413a4.82,4.82,0,0,0-.82-.286,8.479,8.479,0,0,1-.966-.317,1.98,1.98,0,0,1-.82-.6,1.586,1.586,0,0,1-.337-1.036,1.774,1.774,0,0,1,.692-1.48,2.715,2.715,0,0,1,1.722-.54,2.879,2.879,0,0,1,1.41.349,2.554,2.554,0,0,1,1,1l-1.4.762a1.045,1.045,0,0,0-1.017-.648.931.931,0,0,0-.527.14A.436.436,0,0,0,426.349,438.828Z" transform="translate(-409.031 -420.487)" fill="#fff"/>
        <path id="Trazado_11" data-name="Trazado 11" d="M445.527,430.256a1.02,1.02,0,0,1-1-1,.986.986,0,0,1,.3-.712.955.955,0,0,1,.705-.3.969.969,0,0,1,.718.3.987.987,0,0,1,.3.712.964.964,0,0,1-.3.705A.979.979,0,0,1,445.527,430.256Zm-.813,7.116v-6.353h1.639v6.353Z" transform="translate(-423.062 -414.482)" fill="#fff"/>
        <path id="Trazado_12" data-name="Trazado 12" d="M459.632,437.024h1.6v6.048a2.706,2.706,0,0,1-.972,2.249,3.644,3.644,0,0,1-2.344.775,3.97,3.97,0,0,1-1.811-.394,2.755,2.755,0,0,1-1.2-1.156l1.4-.8a2.014,2.014,0,0,0,2.884.483,1.488,1.488,0,0,0,.445-1.156v-.686a2.394,2.394,0,0,1-2.033.966,3,3,0,0,1-2.255-.947,3.365,3.365,0,0,1,.006-4.607,3,3,0,0,1,2.249-.953,2.4,2.4,0,0,1,2.033.965Zm-3.056,4.327a1.912,1.912,0,0,0,2.554,0,1.8,1.8,0,0,0,0-2.49,1.911,1.911,0,0,0-2.554,0,1.8,1.8,0,0,0,0,2.49Z" transform="translate(-429.976 -420.487)" fill="#fff"/>
        <path id="Trazado_13" data-name="Trazado 13" d="M485.351,436.846a2.3,2.3,0,0,1,1.722.7,2.655,2.655,0,0,1,.679,1.932v3.9h-1.639v-3.7a1.3,1.3,0,0,0-.343-.972,1.249,1.249,0,0,0-.915-.337,1.351,1.351,0,0,0-1.017.394,1.639,1.639,0,0,0-.381,1.182v3.431h-1.639v-6.353h1.639v.711A2.117,2.117,0,0,1,485.351,436.846Z" transform="translate(-449.074 -420.487)" fill="#fff"/>
        <path id="Trazado_14" data-name="Trazado 14" d="M506.568,438.828q0,.254.337.413a4.466,4.466,0,0,0,.82.28,8.488,8.488,0,0,1,.966.3,1.874,1.874,0,0,1,.82.616,1.7,1.7,0,0,1,.337,1.08,1.745,1.745,0,0,1-.731,1.506,3.034,3.034,0,0,1-1.823.527,2.672,2.672,0,0,1-2.668-1.512l1.423-.8a1.178,1.178,0,0,0,1.245.826q.877,0,.877-.546,0-.254-.337-.413a4.824,4.824,0,0,0-.82-.286,8.489,8.489,0,0,1-.966-.317,1.982,1.982,0,0,1-.82-.6,1.586,1.586,0,0,1-.337-1.036,1.775,1.775,0,0,1,.693-1.48,2.715,2.715,0,0,1,1.722-.54,2.878,2.878,0,0,1,1.41.349,2.554,2.554,0,0,1,1,1l-1.4.762a1.045,1.045,0,0,0-1.016-.648.93.93,0,0,0-.527.14A.436.436,0,0,0,506.568,438.828Z" transform="translate(-464.981 -420.487)" fill="#fff"/>
      </g>
    </g>
  </g>
</svg>
