<?xml version="1.0" encoding="UTF-8"?>
<svg id="Capa_2" data-name="Capa 2" xmlns="http://www.w3.org/2000/svg" viewBox="0 0 261.22 121.95">
  <defs>
    <style>
      .cls-1 {
        opacity: 0;
      }

      .cls-1, .cls-2 {
        fill: #141c3a;
      }
    </style>
  </defs>
  <g id="Capa_1-2" data-name="Capa 1">
    <g>
      <g>
        <g>
          <polygon class="cls-2" points="45.58 63.65 63.52 27.93 55.27 11.49 11.65 98.39 28.14 98.39 38.32 78.11 63.14 78.11 55.88 63.65 45.58 63.65"/>
          <path class="cls-2" d="m88.42,77.84l.07-.03-1.1-2.18c-11.54-23-18.11-36.08-18.48-36.82l-.9-1.77-8.24,16.42.23.45c.15.3,13.17,26.23,14.09,28.07,1.03,2.18,1.49,3.89,1.49,5.56,0,3.59-1.62,6.92-4.46,9.16l-.64.5,6.57,13.09.93-.6c7.53-4.82,12.09-13.1,12.19-22.15.04-3.44-.55-6.7-1.76-9.71Z"/>
        </g>
        <g>
          <path class="cls-2" d="m123.24,53.44l-1.87-5.29h-12.08l-1.76,5.29h-6.26l10.29-29.4h7.18l10.37,29.4h-5.88Zm-12.06-10.71h8.27l-4.24-12.01-4.03,12.01Z"/>
          <path class="cls-2" d="m131.72,53.44v-30.66h5.42v30.66h-5.42Z"/>
          <path class="cls-2" d="m146.68,45.17c.73,2.63,2.7,3.95,5.92,3.95,2.07,0,3.64-.7,4.7-2.1l4.37,2.52c-2.07,3-5.12,4.49-9.16,4.49-3.47,0-6.26-1.05-8.36-3.15-2.1-2.1-3.15-4.75-3.15-7.94s1.04-5.8,3.11-7.92c2.07-2.11,4.73-3.17,7.98-3.17,3.08,0,5.62,1.06,7.62,3.19,2,2.13,3,4.76,3,7.9,0,.7-.07,1.44-.21,2.23h-15.83Zm-.08-4.2h10.71c-.31-1.43-.95-2.49-1.91-3.19-.97-.7-2.07-1.05-3.3-1.05-1.46,0-2.66.37-3.61,1.11-.95.74-1.58,1.78-1.89,3.13Z"/>
          <path class="cls-2" d="m167,53.86v-21.42h5.42v21.42c0,3.08-.75,5.33-2.25,6.74-1.5,1.41-3.8,2.02-6.91,1.83v-5.21c1.29.08,2.23-.14,2.83-.67.6-.53.9-1.43.9-2.69Zm2.73-23.94c-.92,0-1.72-.33-2.37-.99-.66-.66-.99-1.43-.99-2.33s.33-1.68.99-2.35c.66-.67,1.45-1.01,2.37-1.01s1.67.34,2.33,1.01c.66.67.99,1.46.99,2.35s-.33,1.67-.99,2.33c-.66.66-1.44.99-2.33.99Z"/>
          <path class="cls-2" d="m195.27,50.81c-2.16,2.14-4.79,3.21-7.9,3.21s-5.73-1.07-7.88-3.21-3.21-4.77-3.21-7.88,1.07-5.73,3.21-7.88,4.77-3.21,7.88-3.21,5.74,1.07,7.9,3.21c2.16,2.14,3.23,4.77,3.23,7.88s-1.08,5.73-3.23,7.88Zm-11.95-3.72c1.08,1.09,2.43,1.64,4.05,1.64s2.98-.55,4.07-1.64c1.09-1.09,1.64-2.48,1.64-4.16s-.55-3.07-1.64-4.16c-1.09-1.09-2.45-1.64-4.07-1.64s-2.98.55-4.05,1.64c-1.08,1.09-1.62,2.48-1.62,4.16s.54,3.07,1.62,4.16Z"/>
          <path class="cls-2" d="m119.59,69.04h5.42v29.4h-5.42v-2.48c-1.6,2.04-3.86,3.07-6.8,3.07s-5.24-1.07-7.24-3.21c-2-2.14-3-4.77-3-7.88s1-5.73,3-7.88c2-2.14,4.42-3.21,7.24-3.21s5.21,1.02,6.8,3.07v-10.88Zm-9.98,23.16c1.11,1.11,2.5,1.66,4.18,1.66s3.07-.55,4.16-1.66c1.09-1.11,1.64-2.53,1.64-4.26s-.55-3.16-1.64-4.26c-1.09-1.11-2.48-1.66-4.16-1.66s-3.07.55-4.18,1.66c-1.11,1.11-1.66,2.53-1.66,4.26s.55,3.16,1.66,4.26Z"/>
          <path class="cls-2" d="m134.54,90.17c.73,2.63,2.7,3.95,5.92,3.95,2.07,0,3.64-.7,4.7-2.1l4.37,2.52c-2.07,3-5.12,4.49-9.16,4.49-3.47,0-6.26-1.05-8.36-3.15-2.1-2.1-3.15-4.75-3.15-7.94s1.04-5.8,3.11-7.92c2.07-2.11,4.73-3.17,7.98-3.17,3.08,0,5.62,1.06,7.62,3.19,2,2.13,3,4.76,3,7.9,0,.7-.07,1.44-.21,2.23h-15.83Zm-.08-4.2h10.71c-.31-1.43-.95-2.49-1.91-3.19-.97-.7-2.07-1.05-3.3-1.05-1.46,0-2.66.37-3.61,1.11-.95.74-1.58,1.78-1.89,3.13Z"/>
          <path class="cls-2" d="m158.52,83.4c0,.56.37,1.02,1.11,1.37.74.35,1.64.66,2.71.92,1.06.27,2.13.6,3.19,1.01,1.06.41,1.97,1.09,2.71,2.04.74.95,1.11,2.14,1.11,3.57,0,2.16-.81,3.82-2.42,4.98-1.61,1.16-3.62,1.74-6.03,1.74-4.31,0-7.25-1.67-8.82-5l4.7-2.65c.62,1.82,1.99,2.73,4.12,2.73,1.93,0,2.9-.6,2.9-1.81,0-.56-.37-1.01-1.11-1.37-.74-.35-1.65-.67-2.71-.95-1.06-.28-2.13-.63-3.19-1.05-1.06-.42-1.97-1.08-2.71-2-.74-.91-1.11-2.05-1.11-3.42,0-2.07.76-3.7,2.29-4.89,1.53-1.19,3.42-1.79,5.69-1.79,1.71,0,3.26.38,4.66,1.16,1.4.77,2.51,1.87,3.32,3.3l-4.62,2.52c-.67-1.43-1.79-2.14-3.36-2.14-.7,0-1.28.15-1.74.46-.46.31-.69.73-.69,1.26Z"/>
          <path class="cls-2" d="m175.53,74.92c-.9,0-1.67-.33-2.33-.99-.66-.66-.99-1.43-.99-2.33s.33-1.68.99-2.35c.66-.67,1.43-1.01,2.33-1.01s1.71.34,2.37,1.01c.66.67.99,1.46.99,2.35s-.33,1.67-.99,2.33c-.66.66-1.45.99-2.37.99Zm-2.69,23.52v-21h5.42v21h-5.42Z"/>
          <path class="cls-2" d="m199.3,77.44h5.29v19.99c0,3.25-1.07,5.73-3.21,7.43s-4.73,2.56-7.75,2.56c-2.27,0-4.26-.43-5.98-1.3-1.72-.87-3.05-2.14-3.97-3.82l4.62-2.65c1.06,1.96,2.9,2.94,5.5,2.94,1.71,0,3.05-.45,4.03-1.34.98-.9,1.47-2.17,1.47-3.82v-2.27c-1.6,2.13-3.84,3.19-6.72,3.19s-5.45-1.04-7.46-3.13c-2-2.09-3-4.63-3-7.62s1.01-5.5,3.02-7.6c2.02-2.1,4.49-3.15,7.43-3.15s5.12,1.06,6.72,3.19v-2.6Zm-10.1,14.3c1.11,1.08,2.51,1.62,4.22,1.62s3.11-.54,4.22-1.62c1.11-1.08,1.66-2.46,1.66-4.14s-.55-3.02-1.66-4.09c-1.11-1.08-2.51-1.62-4.22-1.62s-3.12.54-4.22,1.62c-1.11,1.08-1.66,2.44-1.66,4.09s.55,3.06,1.66,4.14Z"/>
          <path class="cls-2" d="m221.18,76.85c2.3,0,4.19.77,5.69,2.31,1.5,1.54,2.25,3.67,2.25,6.38v12.89h-5.42v-12.22c0-1.4-.38-2.47-1.13-3.21s-1.76-1.11-3.02-1.11c-1.4,0-2.52.43-3.36,1.3-.84.87-1.26,2.17-1.26,3.91v11.34h-5.42v-21h5.42v2.35c1.32-1.96,3.4-2.94,6.26-2.94Z"/>
          <path class="cls-2" d="m238.74,83.4c0,.56.37,1.02,1.11,1.37.74.35,1.64.66,2.71.92,1.06.27,2.13.6,3.19,1.01,1.06.41,1.97,1.09,2.71,2.04.74.95,1.11,2.14,1.11,3.57,0,2.16-.81,3.82-2.42,4.98-1.61,1.16-3.62,1.74-6.03,1.74-4.31,0-7.25-1.67-8.82-5l4.7-2.65c.62,1.82,1.99,2.73,4.12,2.73,1.93,0,2.9-.6,2.9-1.81,0-.56-.37-1.01-1.11-1.37-.74-.35-1.65-.67-2.71-.95-1.06-.28-2.13-.63-3.19-1.05-1.06-.42-1.97-1.08-2.71-2-.74-.91-1.11-2.05-1.11-3.42,0-2.07.76-3.7,2.29-4.89,1.53-1.19,3.42-1.79,5.69-1.79,1.71,0,3.26.38,4.66,1.16,1.4.77,2.51,1.87,3.32,3.3l-4.62,2.52c-.67-1.43-1.79-2.14-3.36-2.14-.7,0-1.28.15-1.74.46-.46.31-.69.73-.69,1.26Z"/>
        </g>
      </g>
      <rect class="cls-1" width="261.22" height="121.95"/>
    </g>
  </g>
</svg>