<?xml version="1.0" encoding="utf-8"?>
<!-- Generator: Adobe Illustrator 27.7.0, SVG Export Plug-In . SVG Version: 6.00 Build 0)  -->
<svg version="1.1" id="Capa_1" xmlns="http://www.w3.org/2000/svg" xmlns:xlink="http://www.w3.org/1999/xlink" x="0px" y="0px"
	 viewBox="0 0 183 84" style="enable-background:new 0 0 183 84;" xml:space="preserve">
<style type="text/css">
	.st0{enable-background:new    ;}
	.st1{fill:#ECECEC;}
	.st2{fill:#FFFFFF;}
</style>
<g id="Grupo_367" transform="translate(-3629 -1322)">
	<g class="st0">
		<path class="st1" d="M3642.1,1364.4l-7.5,31.8h-4.6l7.5-31.8H3642.1z"/>
	</g>
	<g class="st0">
		<path class="st2" d="M3635.5,1354.4c-1.3-0.5-2.3-1.3-3-2.3c-0.8-1-1.2-2.2-1.2-3.7h5.6c0.1,0.8,0.4,1.4,0.8,1.8s1.1,0.6,1.9,0.6
			c0.8,0,1.4-0.2,1.9-0.5s0.7-0.9,0.7-1.5c0-0.5-0.2-1-0.5-1.3c-0.4-0.4-0.8-0.6-1.3-0.9c-0.5-0.2-1.3-0.5-2.2-0.8
			c-1.4-0.4-2.6-0.9-3.4-1.3c-0.9-0.4-1.7-1.1-2.3-1.9c-0.6-0.8-1-2-1-3.3c0-2,0.7-3.6,2.2-4.8c1.5-1.1,3.4-1.7,5.7-1.7
			c2.4,0,4.3,0.6,5.8,1.7c1.5,1.1,2.3,2.7,2.4,4.8h-5.7c0-0.7-0.3-1.3-0.8-1.7c-0.5-0.4-1.1-0.6-1.8-0.6c-0.6,0-1.2,0.2-1.5,0.5
			s-0.6,0.8-0.6,1.5c0,0.7,0.3,1.2,1,1.6c0.7,0.4,1.7,0.8,3.1,1.3c1.4,0.5,2.5,0.9,3.4,1.4c0.9,0.4,1.6,1.1,2.3,1.9
			c0.6,0.8,1,1.9,1,3.2c0,1.2-0.3,2.4-0.9,3.4c-0.6,1-1.5,1.8-2.7,2.4c-1.2,0.6-2.6,0.9-4.2,0.9
			C3638.2,1355.2,3636.8,1355,3635.5,1354.4z"/>
		<path class="st2" d="M3667.2,1347.6h-12c0.1,1.1,0.4,1.9,1,2.5s1.4,0.9,2.2,0.9c1.3,0,2.2-0.6,2.8-1.7h5.6
			c-0.3,1.1-0.8,2.2-1.6,3.1c-0.8,0.9-1.7,1.6-2.8,2.1c-1.1,0.5-2.4,0.8-3.8,0.8c-1.7,0-3.2-0.4-4.5-1.1c-1.3-0.7-2.4-1.8-3.1-3.1
			c-0.7-1.3-1.1-2.9-1.1-4.7c0-1.8,0.4-3.4,1.1-4.7c0.7-1.3,1.8-2.4,3.1-3.1c1.3-0.7,2.8-1.1,4.6-1.1c1.7,0,3.2,0.4,4.5,1.1
			c1.3,0.7,2.3,1.7,3.1,3c0.7,1.3,1.1,2.8,1.1,4.6C3667.3,1346.6,3667.3,1347.1,3667.2,1347.6z M3661.9,1344.7
			c0-0.9-0.3-1.6-0.9-2.2c-0.6-0.5-1.4-0.8-2.3-0.8c-0.9,0-1.6,0.3-2.2,0.8c-0.6,0.5-1,1.3-1.1,2.2H3661.9z"/>
		<path class="st2" d="M3677.7,1338.3c0.9-0.5,2-0.8,3.1-0.8v5.6h-1.5c-1.3,0-2.3,0.3-3,0.9c-0.7,0.6-1,1.6-1,3v8h-5.3v-17.3h5.3
			v2.9C3676,1339.6,3676.8,1338.9,3677.7,1338.3z"/>
		<path class="st2" d="M3691.1,1350l3.8-12.3h5.6l-6.1,17.3h-6.5l-6.1-17.3h5.7L3691.1,1350z"/>
		<path class="st2" d="M3703.1,1335.1c-0.6-0.5-0.9-1.2-0.9-2c0-0.8,0.3-1.5,0.9-2.1c0.6-0.5,1.3-0.8,2.3-0.8c0.9,0,1.7,0.3,2.2,0.8
			c0.6,0.5,0.9,1.2,0.9,2.1c0,0.8-0.3,1.5-0.9,2c-0.6,0.5-1.3,0.8-2.2,0.8C3704.5,1335.9,3703.7,1335.6,3703.1,1335.1z
			 M3708.1,1337.7v17.3h-5.3v-17.3H3708.1z"/>
		<path class="st2" d="M3711.9,1341.6c0.7-1.3,1.8-2.4,3.1-3.1c1.3-0.7,2.8-1.1,4.5-1.1c2.2,0,4,0.6,5.4,1.7
			c1.5,1.1,2.4,2.7,2.9,4.8h-5.6c-0.5-1.3-1.4-2-2.8-2c-1,0-1.7,0.4-2.3,1.1c-0.6,0.8-0.9,1.8-0.9,3.2c0,1.4,0.3,2.5,0.9,3.2
			c0.6,0.8,1.4,1.1,2.3,1.1c1.4,0,2.3-0.7,2.8-2h5.6c-0.5,2-1.4,3.6-2.9,4.8c-1.5,1.2-3.3,1.7-5.4,1.7c-1.7,0-3.2-0.4-4.5-1.1
			c-1.3-0.7-2.3-1.8-3.1-3.1c-0.7-1.3-1.1-2.9-1.1-4.7C3710.8,1344.6,3711.2,1343,3711.9,1341.6z"/>
		<path class="st2" d="M3731,1335.1c-0.6-0.5-0.9-1.2-0.9-2c0-0.8,0.3-1.5,0.9-2.1c0.6-0.5,1.3-0.8,2.3-0.8c0.9,0,1.7,0.3,2.2,0.8
			c0.6,0.5,0.9,1.2,0.9,2.1c0,0.8-0.3,1.5-0.9,2c-0.6,0.5-1.3,0.8-2.2,0.8C3732.4,1335.9,3731.6,1335.6,3731,1335.1z M3736,1337.7
			v17.3h-5.3v-17.3H3736z"/>
		<path class="st2" d="M3743.1,1354.2c-1.4-0.7-2.4-1.8-3.2-3.1c-0.8-1.3-1.2-2.9-1.2-4.7c0-1.8,0.4-3.3,1.2-4.7
			c0.8-1.4,1.9-2.4,3.2-3.1c1.4-0.7,2.9-1.1,4.6-1.1c1.7,0,3.2,0.4,4.6,1.1c1.4,0.7,2.4,1.8,3.2,3.1c0.8,1.4,1.2,2.9,1.2,4.7
			c0,1.8-0.4,3.3-1.2,4.7s-1.9,2.4-3.3,3.1s-2.9,1.1-4.6,1.1S3744.5,1354.9,3743.1,1354.2z M3750.3,1349.5c0.7-0.7,1.1-1.8,1.1-3.2
			c0-1.4-0.3-2.4-1-3.2c-0.7-0.7-1.5-1.1-2.6-1.1c-1,0-1.9,0.4-2.6,1.1s-1,1.8-1,3.2c0,1.4,0.3,2.4,1,3.2s1.5,1.1,2.5,1.1
			S3749.6,1350.3,3750.3,1349.5z"/>
		<path class="st2" d="M3762.6,1354.5c-1.2-0.5-2.1-1.2-2.8-2.1c-0.7-0.9-1.1-1.9-1.1-3h5.2c0.1,0.6,0.3,1.1,0.8,1.5
			s1.1,0.6,1.8,0.6c0.7,0,1.2-0.1,1.5-0.4c0.4-0.3,0.5-0.6,0.5-1c0-0.5-0.3-0.9-0.8-1.1s-1.4-0.5-2.5-0.8c-1.2-0.3-2.3-0.6-3.1-0.9
			c-0.8-0.3-1.5-0.8-2.1-1.5c-0.6-0.7-0.9-1.6-0.9-2.8c0-1,0.3-1.9,0.8-2.7s1.4-1.5,2.4-1.9c1.1-0.5,2.3-0.7,3.8-0.7
			c2.2,0,3.9,0.5,5.1,1.6c1.3,1.1,2,2.5,2.2,4.3h-4.9c-0.1-0.6-0.3-1.1-0.8-1.4s-1-0.5-1.8-0.5c-0.6,0-1.1,0.1-1.4,0.4
			c-0.3,0.2-0.5,0.6-0.5,1c0,0.5,0.3,0.9,0.8,1.1s1.3,0.5,2.5,0.7c1.3,0.3,2.3,0.7,3.1,1s1.5,0.8,2.1,1.5s0.9,1.7,0.9,2.9
			c0,1-0.3,1.9-0.9,2.7c-0.6,0.8-1.4,1.4-2.4,1.9c-1.1,0.5-2.3,0.7-3.7,0.7C3765.1,1355.2,3763.7,1355,3762.6,1354.5z"/>
	</g>
	<g class="st0">
		<path class="st2" d="M3666.6,1383.7c-0.6,1-1.5,1.9-2.7,2.5c-1.2,0.6-2.7,1-4.5,1h-3.3v7.8h-5.3v-21.8h8.6c1.7,0,3.2,0.3,4.4,0.9
			c1.2,0.6,2.1,1.4,2.7,2.5c0.6,1.1,0.9,2.3,0.9,3.6C3667.5,1381.5,3667.2,1382.7,3666.6,1383.7z M3661.4,1382.3
			c0.5-0.5,0.7-1.1,0.7-2s-0.2-1.5-0.7-2c-0.5-0.5-1.3-0.7-2.3-0.7h-2.9v5.5h2.9C3660.1,1383,3660.9,1382.7,3661.4,1382.3z"/>
		<path class="st2" d="M3677.9,1378.3c0.9-0.5,2-0.8,3.1-0.8v5.6h-1.5c-1.3,0-2.3,0.3-3,0.9c-0.7,0.6-1,1.6-1,3v8h-5.3v-17.3h5.3
			v2.9C3676.2,1379.6,3677,1378.9,3677.9,1378.3z"/>
		<path class="st2" d="M3686.8,1394.2c-1.4-0.7-2.4-1.8-3.2-3.1c-0.8-1.3-1.2-2.9-1.2-4.7c0-1.8,0.4-3.3,1.2-4.7
			c0.8-1.4,1.9-2.4,3.2-3.1c1.4-0.7,2.9-1.1,4.6-1.1c1.7,0,3.2,0.4,4.6,1.1c1.4,0.7,2.4,1.8,3.2,3.1c0.8,1.4,1.2,2.9,1.2,4.7
			c0,1.8-0.4,3.3-1.2,4.7s-1.9,2.4-3.3,3.1c-1.4,0.7-2.9,1.1-4.6,1.1C3689.7,1395.2,3688.2,1394.9,3686.8,1394.2z M3694,1389.5
			c0.7-0.7,1.1-1.8,1.1-3.2c0-1.4-0.3-2.4-1-3.2c-0.7-0.7-1.5-1.1-2.6-1.1c-1,0-1.9,0.4-2.6,1.1c-0.7,0.7-1,1.8-1,3.2
			c0,1.4,0.3,2.4,1,3.2c0.7,0.7,1.5,1.1,2.5,1.1C3692.4,1390.7,3693.3,1390.3,3694,1389.5z"/>
		<path class="st2" d="M3703.2,1381.6c0.7-1.3,1.6-2.4,2.7-3.1c1.2-0.7,2.4-1.1,3.9-1.1c1.1,0,2.2,0.2,3.1,0.7s1.7,1.1,2.2,1.9v-8
			h5.3v22.9h-5.3v-2.5c-0.5,0.8-1.2,1.5-2.1,2c-0.9,0.5-2,0.7-3.2,0.7c-1.4,0-2.7-0.4-3.9-1.1c-1.2-0.7-2.1-1.8-2.7-3.1
			c-0.7-1.4-1-2.9-1-4.7S3702.6,1383,3703.2,1381.6z M3714.1,1383.2c-0.7-0.8-1.6-1.1-2.7-1.1c-1.1,0-1.9,0.4-2.7,1.1
			c-0.7,0.8-1.1,1.8-1.1,3.1s0.4,2.4,1.1,3.1c0.7,0.8,1.6,1.2,2.7,1.2c1.1,0,1.9-0.4,2.7-1.1c0.7-0.8,1.1-1.8,1.1-3.1
			C3715.2,1385,3714.8,1384,3714.1,1383.2z"/>
		<path class="st2" d="M3741.4,1377.7v17.3h-5.3v-2.4c-0.5,0.8-1.3,1.4-2.2,1.8c-0.9,0.5-1.9,0.7-3.1,0.7c-1.3,0-2.5-0.3-3.5-0.9
			c-1-0.6-1.8-1.4-2.4-2.6s-0.8-2.4-0.8-3.9v-10.1h5.3v9.4c0,1.2,0.3,2.1,0.9,2.7c0.6,0.6,1.4,1,2.4,1c1,0,1.8-0.3,2.4-1
			c0.6-0.6,0.9-1.5,0.9-2.7v-9.4H3741.4z"/>
		<path class="st2" d="M3745.3,1381.6c0.7-1.3,1.8-2.4,3.1-3.1s2.8-1.1,4.5-1.1c2.2,0,4,0.6,5.4,1.7s2.4,2.7,2.9,4.8h-5.6
			c-0.5-1.3-1.4-2-2.8-2c-1,0-1.7,0.4-2.3,1.1c-0.6,0.8-0.9,1.8-0.9,3.2c0,1.4,0.3,2.5,0.9,3.2c0.6,0.8,1.4,1.1,2.3,1.1
			c1.4,0,2.3-0.7,2.8-2h5.6c-0.5,2-1.4,3.6-2.9,4.8c-1.5,1.2-3.3,1.7-5.4,1.7c-1.7,0-3.2-0.4-4.5-1.1s-2.3-1.8-3.1-3.1
			c-0.7-1.3-1.1-2.9-1.1-4.7C3744.2,1384.6,3744.5,1383,3745.3,1381.6z"/>
		<path class="st2" d="M3773.6,1390.5v4.5h-2.7c-1.9,0-3.4-0.5-4.5-1.4c-1.1-0.9-1.6-2.5-1.6-4.6v-6.9h-2.1v-4.4h2.1v-4.2h5.3v4.2
			h3.5v4.4h-3.5v6.9c0,0.5,0.1,0.9,0.4,1.1s0.7,0.3,1.2,0.3H3773.6z"/>
		<path class="st2" d="M3779.9,1394.2c-1.4-0.7-2.4-1.8-3.2-3.1c-0.8-1.3-1.2-2.9-1.2-4.7c0-1.8,0.4-3.3,1.2-4.7
			c0.8-1.4,1.9-2.4,3.2-3.1c1.4-0.7,2.9-1.1,4.6-1.1c1.7,0,3.2,0.4,4.6,1.1c1.4,0.7,2.4,1.8,3.2,3.1c0.8,1.4,1.2,2.9,1.2,4.7
			c0,1.8-0.4,3.3-1.2,4.7s-1.9,2.4-3.3,3.1c-1.4,0.7-2.9,1.1-4.6,1.1C3782.7,1395.2,3781.2,1394.9,3779.9,1394.2z M3787,1389.5
			c0.7-0.7,1.1-1.8,1.1-3.2c0-1.4-0.3-2.4-1-3.2c-0.7-0.7-1.5-1.1-2.6-1.1c-1,0-1.9,0.4-2.6,1.1c-0.7,0.7-1,1.8-1,3.2
			c0,1.4,0.3,2.4,1,3.2c0.7,0.7,1.5,1.1,2.5,1.1C3785.4,1390.7,3786.3,1390.3,3787,1389.5z"/>
		<path class="st2" d="M3799.3,1394.5c-1.2-0.5-2.1-1.2-2.8-2.1c-0.7-0.9-1.1-1.9-1.1-3h5.2c0.1,0.6,0.3,1.1,0.8,1.5
			s1.1,0.6,1.8,0.6c0.7,0,1.2-0.1,1.5-0.4c0.4-0.3,0.5-0.6,0.5-1c0-0.5-0.3-0.9-0.8-1.1c-0.5-0.2-1.4-0.5-2.5-0.8
			c-1.2-0.3-2.3-0.6-3.1-0.9c-0.8-0.3-1.5-0.8-2.1-1.5c-0.6-0.7-0.9-1.6-0.9-2.8c0-1,0.3-1.9,0.8-2.7c0.5-0.8,1.4-1.5,2.4-1.9
			s2.3-0.7,3.8-0.7c2.2,0,3.9,0.5,5.1,1.6c1.2,1.1,2,2.5,2.2,4.3h-4.9c-0.1-0.6-0.3-1.1-0.8-1.4c-0.4-0.4-1-0.5-1.8-0.5
			c-0.6,0-1.1,0.1-1.4,0.4c-0.3,0.2-0.5,0.6-0.5,1c0,0.5,0.3,0.9,0.8,1.1c0.5,0.2,1.3,0.5,2.5,0.7c1.3,0.3,2.3,0.7,3.1,1
			s1.5,0.8,2.1,1.5c0.6,0.7,0.9,1.7,0.9,2.9c0,1-0.3,1.9-0.9,2.7c-0.6,0.8-1.4,1.4-2.4,1.9c-1.1,0.5-2.3,0.7-3.7,0.7
			C3801.8,1395.2,3800.5,1395,3799.3,1394.5z"/>
	</g>
</g>
</svg>
