<?xml version="1.0" encoding="utf-8"?>
<!-- Generator: Adobe Illustrator 27.7.0, SVG Export Plug-In . SVG Version: 6.00 Build 0)  -->
<svg version="1.1" id="Capa_1" xmlns="http://www.w3.org/2000/svg" xmlns:xlink="http://www.w3.org/1999/xlink" x="0px" y="0px"
	 viewBox="0 0 289 63" style="enable-background:new 0 0 289 63;" xml:space="preserve">
<style type="text/css">
	.st0{enable-background:new    ;}
	.st1{fill:#141C3A;}
	.st2{fill:#8F8F8F;}
</style>
<g id="Grupo_367" transform="translate(-36 -114)">
	<g class="st0">
		<path class="st1" d="M49.2,123.2c1.3,0.7,2.4,1.7,3.1,3c0.7,1.3,1.1,2.7,1.1,4.4c0,1.6-0.4,3.1-1.1,4.4c-0.7,1.3-1.8,2.3-3.1,3
			s-2.9,1.1-4.6,1.1h-6.3v-16.8h6.3C46.3,122.2,47.9,122.5,49.2,123.2z M47.9,134.2c0.9-0.8,1.3-2,1.3-3.6s-0.4-2.8-1.3-3.6
			c-0.9-0.9-2.1-1.3-3.6-1.3h-1.9v9.8h1.9C45.8,135.4,47,135,47.9,134.2z"/>
		<path class="st1" d="M56,123.6c-0.5-0.4-0.7-0.9-0.7-1.6c0-0.6,0.2-1.2,0.7-1.6s1-0.6,1.8-0.6c0.7,0,1.3,0.2,1.7,0.6
			s0.7,1,0.7,1.6c0,0.6-0.2,1.1-0.7,1.6s-1,0.6-1.7,0.6C57,124.2,56.4,124,56,123.6z M59.8,125.6V139h-4.1v-13.4H59.8z"/>
		<path class="st1" d="M65.1,138.6c-0.9-0.4-1.6-0.9-2.2-1.6c-0.5-0.7-0.8-1.5-0.9-2.3h4.1c0,0.5,0.3,0.8,0.6,1.1
			c0.4,0.3,0.9,0.4,1.4,0.4c0.5,0,0.9-0.1,1.2-0.3c0.3-0.2,0.4-0.5,0.4-0.8c0-0.4-0.2-0.7-0.6-0.9s-1-0.4-1.9-0.6
			c-1-0.2-1.8-0.5-2.4-0.7c-0.6-0.2-1.2-0.6-1.7-1.2c-0.5-0.5-0.7-1.3-0.7-2.2c0-0.8,0.2-1.5,0.6-2.1c0.4-0.6,1-1.1,1.9-1.5
			c0.8-0.4,1.8-0.6,2.9-0.6c1.7,0,3,0.4,4,1.2c1,0.8,1.5,1.9,1.7,3.3h-3.8c-0.1-0.5-0.3-0.8-0.6-1.1c-0.3-0.3-0.8-0.4-1.4-0.4
			c-0.5,0-0.8,0.1-1.1,0.3s-0.4,0.4-0.4,0.8c0,0.4,0.2,0.7,0.6,0.9c0.4,0.2,1,0.4,1.9,0.6c1,0.3,1.8,0.5,2.4,0.8s1.2,0.6,1.6,1.2
			c0.5,0.6,0.7,1.3,0.7,2.2c0,0.8-0.2,1.5-0.7,2.1c-0.4,0.6-1.1,1.1-1.9,1.5c-0.8,0.4-1.8,0.5-2.9,0.5C67,139.2,66,139,65.1,138.6z"
			/>
		<path class="st1" d="M88.7,133.3h-9.3c0.1,0.8,0.3,1.5,0.8,1.9c0.5,0.4,1.1,0.7,1.7,0.7c1,0,1.7-0.4,2.1-1.3h4.4
			c-0.2,0.9-0.6,1.7-1.2,2.4c-0.6,0.7-1.3,1.3-2.2,1.7c-0.9,0.4-1.9,0.6-3,0.6c-1.3,0-2.5-0.3-3.5-0.8c-1-0.6-1.8-1.4-2.4-2.4
			c-0.6-1-0.9-2.3-0.9-3.6c0-1.4,0.3-2.6,0.9-3.6s1.4-1.8,2.4-2.4c1-0.6,2.2-0.8,3.5-0.8c1.3,0,2.4,0.3,3.5,0.8s1.8,1.3,2.4,2.3
			c0.6,1,0.9,2.2,0.9,3.5C88.8,132.5,88.8,132.9,88.7,133.3z M84.6,131c0-0.7-0.2-1.3-0.7-1.7s-1.1-0.6-1.8-0.6
			c-0.7,0-1.3,0.2-1.7,0.6c-0.5,0.4-0.8,1-0.9,1.7H84.6z"/>
		<path class="st1" d="M102.9,127c0.9,1,1.4,2.4,1.4,4.2v7.8h-4.1v-7.3c0-0.9-0.2-1.6-0.7-2.1c-0.5-0.5-1.1-0.7-1.9-0.7
			c-0.8,0-1.4,0.2-1.9,0.7c-0.5,0.5-0.7,1.2-0.7,2.1v7.3h-4.1v-13.4H95v1.8c0.4-0.6,1-1.1,1.7-1.4c0.7-0.3,1.5-0.5,2.4-0.5
			C100.7,125.5,101.9,126,102.9,127z M96.6,120.9c0.4,0,0.7,0.1,0.9,0.2c0.3,0.1,0.6,0.3,1,0.5c0.3,0.2,0.5,0.3,0.7,0.3
			c0.2,0.1,0.4,0.1,0.6,0.1c0.6,0,0.9-0.4,1-1.1h2.1c-0.4,2.4-1.5,3.6-3.3,3.6c-0.4,0-0.7-0.1-0.9-0.2s-0.6-0.3-1-0.5
			c-0.3-0.2-0.5-0.3-0.7-0.3c-0.2-0.1-0.4-0.1-0.6-0.1c-0.6,0-0.9,0.4-1.1,1.1h-2.1C93.7,122.1,94.8,120.9,96.6,120.9z"/>
		<path class="st1" d="M107.1,128.7c0.5-1,1.2-1.8,2.1-2.4c0.9-0.6,1.9-0.8,3-0.8c0.9,0,1.8,0.2,2.5,0.6c0.7,0.4,1.3,0.9,1.6,1.5
			v-1.9h4.1V139h-4.1v-1.9c-0.4,0.6-1,1.1-1.7,1.5c-0.7,0.4-1.5,0.6-2.5,0.6c-1.1,0-2.1-0.3-3-0.9c-0.9-0.6-1.6-1.4-2.1-2.4
			c-0.5-1-0.8-2.3-0.8-3.6S106.6,129.7,107.1,128.7z M115.5,129.9c-0.6-0.6-1.3-0.9-2.1-0.9s-1.5,0.3-2.1,0.9
			c-0.6,0.6-0.9,1.4-0.9,2.4c0,1,0.3,1.8,0.9,2.4c0.6,0.6,1.3,0.9,2.1,0.9s1.5-0.3,2.1-0.9c0.6-0.6,0.9-1.4,0.9-2.4
			C116.3,131.3,116,130.5,115.5,129.9z"/>
		<path class="st1" d="M123.4,128.7c0.5-1,1.2-1.8,2.1-2.4c0.9-0.6,1.9-0.8,3-0.8c0.9,0,1.7,0.2,2.4,0.6c0.7,0.4,1.3,0.9,1.7,1.5
			v-6.2h4.1V139h-4.1v-1.9c-0.4,0.6-0.9,1.2-1.6,1.5c-0.7,0.4-1.5,0.6-2.5,0.6c-1.1,0-2.1-0.3-3-0.9c-0.9-0.6-1.6-1.4-2.1-2.4
			c-0.5-1-0.8-2.3-0.8-3.6S122.9,129.7,123.4,128.7z M131.8,129.9c-0.6-0.6-1.3-0.9-2.1-0.9s-1.5,0.3-2.1,0.9
			c-0.6,0.6-0.9,1.4-0.9,2.4c0,1,0.3,1.8,0.9,2.4c0.6,0.6,1.3,0.9,2.1,0.9s1.5-0.3,2.1-0.9c0.6-0.6,0.9-1.4,0.9-2.4
			C132.6,131.3,132.3,130.5,131.8,129.9z"/>
		<path class="st1" d="M142.3,138.4c-1-0.6-1.9-1.4-2.5-2.4c-0.6-1-0.9-2.3-0.9-3.6c0-1.4,0.3-2.6,0.9-3.6c0.6-1,1.4-1.9,2.5-2.4
			c1.1-0.6,2.2-0.8,3.6-0.8s2.5,0.3,3.6,0.8c1.1,0.6,1.9,1.4,2.5,2.4c0.6,1,0.9,2.3,0.9,3.6c0,1.4-0.3,2.6-0.9,3.6
			c-0.6,1-1.5,1.9-2.5,2.4c-1.1,0.6-2.3,0.8-3.6,0.8C144.5,139.2,143.3,138.9,142.3,138.4z M147.8,134.8c0.6-0.6,0.8-1.4,0.8-2.5
			c0-1.1-0.3-1.9-0.8-2.5s-1.2-0.9-2-0.9c-0.8,0-1.5,0.3-2,0.9c-0.5,0.6-0.8,1.4-0.8,2.5c0,1.1,0.3,1.9,0.8,2.5
			c0.5,0.6,1.2,0.9,2,0.9C146.6,135.6,147.3,135.4,147.8,134.8z"/>
		<path class="st1" d="M160.9,126.1c0.7-0.4,1.5-0.6,2.4-0.6v4.3h-1.1c-1,0-1.8,0.2-2.3,0.7c-0.5,0.4-0.8,1.2-0.8,2.3v6.2H155v-13.4
			h4.1v2.2C159.6,127.1,160.2,126.5,160.9,126.1z"/>
		<path class="st1" d="M181.5,127.5c-0.3-0.6-0.7-1-1.3-1.3s-1.2-0.4-2-0.4c-1.3,0-2.4,0.4-3.2,1.3c-0.8,0.9-1.2,2-1.2,3.5
			c0,1.6,0.4,2.8,1.3,3.6s2,1.3,3.5,1.3c1,0,1.9-0.3,2.6-0.8c0.7-0.5,1.2-1.2,1.5-2.2h-5.2v-3h8.9v3.8c-0.3,1-0.8,2-1.5,2.9
			c-0.7,0.9-1.7,1.6-2.8,2.1s-2.4,0.8-3.8,0.8c-1.7,0-3.1-0.4-4.5-1.1c-1.3-0.7-2.3-1.7-3-3s-1.1-2.8-1.1-4.4s0.4-3.1,1.1-4.5
			c0.7-1.3,1.7-2.3,3-3c1.3-0.7,2.8-1.1,4.4-1.1c2,0,3.7,0.5,5.1,1.5c1.4,1,2.3,2.3,2.7,4.1H181.5z"/>
		<path class="st1" d="M194.5,126.1c0.7-0.4,1.5-0.6,2.4-0.6v4.3h-1.1c-1,0-1.8,0.2-2.3,0.7c-0.5,0.4-0.8,1.2-0.8,2.3v6.2h-4.1
			v-13.4h4.1v2.2C193.2,127.1,193.8,126.5,194.5,126.1z"/>
		<path class="st1" d="M198.9,128.7c0.5-1,1.2-1.8,2.1-2.4c0.9-0.6,1.9-0.8,3-0.8c0.9,0,1.8,0.2,2.5,0.6s1.3,0.9,1.6,1.5v-1.9h4.1
			V139h-4.1v-1.9c-0.4,0.6-1,1.1-1.7,1.5c-0.7,0.4-1.5,0.6-2.5,0.6c-1.1,0-2.1-0.3-3-0.9c-0.9-0.6-1.6-1.4-2.1-2.4
			c-0.5-1-0.8-2.3-0.8-3.6S198.4,129.7,198.9,128.7z M207.3,129.9c-0.6-0.6-1.3-0.9-2.1-0.9c-0.8,0-1.5,0.3-2.1,0.9
			c-0.6,0.6-0.9,1.4-0.9,2.4c0,1,0.3,1.8,0.9,2.4c0.6,0.6,1.3,0.9,2.1,0.9c0.8,0,1.5-0.3,2.1-0.9c0.6-0.6,0.9-1.4,0.9-2.4
			C208.1,131.3,207.8,130.5,207.3,129.9z M208.4,122.3l-5.8,2.4v-2.8l5.8-2.8V122.3z"/>
		<path class="st1" d="M221.9,129h-2.2v10h-4.1v-10h-1.5v-3.4h1.5v-0.4c0-1.6,0.5-2.9,1.4-3.8c0.9-0.9,2.3-1.3,4.2-1.3
			c0.3,0,0.5,0,0.7,0v3.5c-0.8,0-1.3,0.1-1.7,0.3c-0.3,0.3-0.5,0.8-0.5,1.5v0.1h2.2V129z"/>
		<path class="st1" d="M224.1,123.6c-0.5-0.4-0.7-0.9-0.7-1.6c0-0.6,0.2-1.2,0.7-1.6s1-0.6,1.8-0.6c0.7,0,1.3,0.2,1.7,0.6
			s0.7,1,0.7,1.6c0,0.6-0.2,1.1-0.7,1.6s-1,0.6-1.7,0.6C225.2,124.2,224.6,124,224.1,123.6z M228,125.6V139h-4.1v-13.4H228z"/>
		<path class="st1" d="M231,128.7c0.6-1,1.4-1.8,2.4-2.4c1-0.6,2.2-0.8,3.5-0.8c1.7,0,3.1,0.4,4.2,1.3s1.9,2.1,2.2,3.7h-4.4
			c-0.4-1-1.1-1.5-2.1-1.5c-0.8,0-1.4,0.3-1.8,0.9s-0.7,1.4-0.7,2.5c0,1.1,0.2,1.9,0.7,2.5c0.4,0.6,1,0.9,1.8,0.9
			c1.1,0,1.8-0.5,2.1-1.5h4.4c-0.4,1.6-1.1,2.8-2.2,3.7c-1.1,0.9-2.5,1.3-4.2,1.3c-1.3,0-2.5-0.3-3.5-0.8c-1-0.6-1.8-1.4-2.4-2.4
			c-0.6-1-0.9-2.3-0.9-3.6C230.1,130.9,230.4,129.7,231,128.7z"/>
		<path class="st1" d="M248,138.4c-1-0.6-1.9-1.4-2.5-2.4c-0.6-1-0.9-2.3-0.9-3.6c0-1.4,0.3-2.6,0.9-3.6c0.6-1,1.4-1.9,2.5-2.4
			c1.1-0.6,2.2-0.8,3.6-0.8c1.3,0,2.5,0.3,3.6,0.8c1.1,0.6,1.9,1.4,2.5,2.4s0.9,2.3,0.9,3.6c0,1.4-0.3,2.6-0.9,3.6
			c-0.6,1-1.5,1.9-2.5,2.4c-1.1,0.6-2.3,0.8-3.6,0.8C250.2,139.2,249.1,138.9,248,138.4z M253.5,134.8c0.6-0.6,0.8-1.4,0.8-2.5
			c0-1.1-0.3-1.9-0.8-2.5s-1.2-0.9-2-0.9c-0.8,0-1.5,0.3-2,0.9c-0.5,0.6-0.8,1.4-0.8,2.5c0,1.1,0.3,1.9,0.8,2.5
			c0.5,0.6,1.2,0.9,2,0.9C252.3,135.6,253,135.4,253.5,134.8z"/>
	</g>
	<g class="st0">
		<path class="st1" d="M63.8,153.2c1.3,0.7,2.4,1.7,3.1,3c0.7,1.3,1.1,2.7,1.1,4.4c0,1.6-0.4,3.1-1.1,4.4c-0.7,1.3-1.8,2.3-3.1,3
			s-2.9,1.1-4.6,1.1h-6.3v-16.8h6.3C60.9,152.2,62.4,152.5,63.8,153.2z M62.5,164.2c0.9-0.8,1.3-2,1.3-3.6s-0.4-2.8-1.3-3.6
			c-0.9-0.9-2.1-1.3-3.6-1.3h-1.9v9.8h1.9C60.4,165.4,61.6,165,62.5,164.2z"/>
		<path class="st1" d="M70.6,153.6c-0.5-0.4-0.7-0.9-0.7-1.6c0-0.6,0.2-1.2,0.7-1.6s1-0.6,1.8-0.6c0.7,0,1.3,0.2,1.7,0.6
			s0.7,1,0.7,1.6c0,0.6-0.2,1.1-0.7,1.6s-1,0.6-1.7,0.6C71.6,154.2,71,154,70.6,153.6z M74.4,155.6V169h-4.1v-13.4H74.4z"/>
		<path class="st1" d="M79.7,168.6c-0.9-0.4-1.6-0.9-2.2-1.6c-0.5-0.7-0.8-1.5-0.9-2.3h4.1c0,0.5,0.3,0.8,0.6,1.1
			c0.4,0.3,0.9,0.4,1.4,0.4c0.5,0,0.9-0.1,1.2-0.3c0.3-0.2,0.4-0.5,0.4-0.8c0-0.4-0.2-0.7-0.6-0.9s-1-0.4-1.9-0.6
			c-1-0.2-1.8-0.5-2.4-0.7c-0.6-0.2-1.2-0.6-1.7-1.2c-0.5-0.5-0.7-1.3-0.7-2.2c0-0.8,0.2-1.5,0.6-2.1c0.4-0.6,1-1.1,1.9-1.5
			c0.8-0.4,1.8-0.6,2.9-0.6c1.7,0,3,0.4,4,1.2c1,0.8,1.5,1.9,1.7,3.3h-3.8c-0.1-0.5-0.3-0.8-0.6-1.1c-0.3-0.3-0.8-0.4-1.4-0.4
			c-0.5,0-0.8,0.1-1.1,0.3s-0.4,0.4-0.4,0.8c0,0.4,0.2,0.7,0.6,0.9c0.4,0.2,1,0.4,1.9,0.6c1,0.3,1.8,0.5,2.4,0.8s1.2,0.6,1.6,1.2
			c0.5,0.6,0.7,1.3,0.7,2.2c0,0.8-0.2,1.5-0.7,2.1c-0.4,0.6-1.1,1.1-1.9,1.5c-0.8,0.4-1.8,0.5-2.9,0.5
			C81.6,169.2,80.6,169,79.7,168.6z"/>
		<path class="st1" d="M103.3,163.3H94c0.1,0.8,0.3,1.5,0.8,1.9c0.5,0.4,1.1,0.7,1.7,0.7c1,0,1.7-0.4,2.1-1.3h4.4
			c-0.2,0.9-0.6,1.7-1.2,2.4c-0.6,0.7-1.3,1.3-2.2,1.7c-0.9,0.4-1.9,0.6-3,0.6c-1.3,0-2.5-0.3-3.5-0.8c-1-0.6-1.8-1.4-2.4-2.4
			c-0.6-1-0.9-2.3-0.9-3.6c0-1.4,0.3-2.6,0.9-3.6s1.4-1.8,2.4-2.4c1-0.6,2.2-0.8,3.5-0.8c1.3,0,2.4,0.3,3.5,0.8s1.8,1.3,2.4,2.3
			c0.6,1,0.9,2.2,0.9,3.5C103.4,162.5,103.3,162.9,103.3,163.3z M99.2,161c0-0.7-0.2-1.3-0.7-1.7s-1.1-0.6-1.8-0.6
			c-0.7,0-1.3,0.2-1.7,0.6c-0.5,0.4-0.8,1-0.9,1.7H99.2z"/>
		<path class="st1" d="M117.4,157c0.9,1,1.4,2.4,1.4,4.2v7.8h-4.1v-7.3c0-0.9-0.2-1.6-0.7-2.1c-0.5-0.5-1.1-0.7-1.9-0.7
			c-0.8,0-1.4,0.2-1.9,0.7c-0.5,0.5-0.7,1.2-0.7,2.1v7.3h-4.1v-13.4h4.1v1.8c0.4-0.6,1-1.1,1.7-1.4c0.7-0.3,1.5-0.5,2.4-0.5
			C115.2,155.5,116.5,156,117.4,157z M111.2,150.9c0.4,0,0.7,0.1,0.9,0.2c0.3,0.1,0.6,0.3,1,0.5c0.3,0.2,0.5,0.3,0.7,0.3
			c0.2,0.1,0.4,0.1,0.6,0.1c0.6,0,0.9-0.4,1-1.1h2.1c-0.4,2.4-1.5,3.6-3.3,3.6c-0.4,0-0.7-0.1-0.9-0.2s-0.6-0.3-1-0.5
			c-0.3-0.2-0.5-0.3-0.7-0.3c-0.2-0.1-0.4-0.1-0.6-0.1c-0.6,0-0.9,0.4-1.1,1.1h-2.1C108.3,152.1,109.4,150.9,111.2,150.9z"/>
		<path class="st1" d="M121.7,158.7c0.5-1,1.2-1.8,2.1-2.4c0.9-0.6,1.9-0.8,3-0.8c0.9,0,1.8,0.2,2.5,0.6c0.7,0.4,1.3,0.9,1.6,1.5
			v-1.9h4.1V169h-4.1v-1.9c-0.4,0.6-1,1.1-1.7,1.5c-0.7,0.4-1.5,0.6-2.5,0.6c-1.1,0-2.1-0.3-3-0.9c-0.9-0.6-1.6-1.4-2.1-2.4
			c-0.5-1-0.8-2.3-0.8-3.6S121.1,159.7,121.7,158.7z M130.1,159.9c-0.6-0.6-1.3-0.9-2.1-0.9s-1.5,0.3-2.1,0.9
			c-0.6,0.6-0.9,1.4-0.9,2.4c0,1,0.3,1.8,0.9,2.4c0.6,0.6,1.3,0.9,2.1,0.9s1.5-0.3,2.1-0.9c0.6-0.6,0.9-1.4,0.9-2.4
			C130.9,161.3,130.6,160.5,130.1,159.9z"/>
		<path class="st1" d="M137.9,158.7c0.5-1,1.2-1.8,2.1-2.4c0.9-0.6,1.9-0.8,3-0.8c0.9,0,1.7,0.2,2.4,0.6c0.7,0.4,1.3,0.9,1.7,1.5
			v-6.2h4.1V169h-4.1v-1.9c-0.4,0.6-0.9,1.2-1.6,1.5c-0.7,0.4-1.5,0.6-2.5,0.6c-1.1,0-2.1-0.3-3-0.9c-0.9-0.6-1.6-1.4-2.1-2.4
			c-0.5-1-0.8-2.3-0.8-3.6S137.4,159.7,137.9,158.7z M146.3,159.9c-0.6-0.6-1.3-0.9-2.1-0.9s-1.5,0.3-2.1,0.9
			c-0.6,0.6-0.9,1.4-0.9,2.4c0,1,0.3,1.8,0.9,2.4c0.6,0.6,1.3,0.9,2.1,0.9s1.5-0.3,2.1-0.9c0.6-0.6,0.9-1.4,0.9-2.4
			C147.2,161.3,146.9,160.5,146.3,159.9z"/>
		<path class="st1" d="M156.8,168.4c-1-0.6-1.9-1.4-2.5-2.4c-0.6-1-0.9-2.3-0.9-3.6c0-1.4,0.3-2.6,0.9-3.6c0.6-1,1.4-1.9,2.5-2.4
			c1.1-0.6,2.2-0.8,3.6-0.8s2.5,0.3,3.6,0.8c1.1,0.6,1.9,1.4,2.5,2.4c0.6,1,0.9,2.3,0.9,3.6c0,1.4-0.3,2.6-0.9,3.6
			c-0.6,1-1.5,1.9-2.5,2.4c-1.1,0.6-2.3,0.8-3.6,0.8C159.1,169.2,157.9,168.9,156.8,168.4z M162.4,164.8c0.6-0.6,0.8-1.4,0.8-2.5
			c0-1.1-0.3-1.9-0.8-2.5s-1.2-0.9-2-0.9c-0.8,0-1.5,0.3-2,0.9c-0.5,0.6-0.8,1.4-0.8,2.5c0,1.1,0.3,1.9,0.8,2.5
			c0.5,0.6,1.2,0.9,2,0.9C161.2,165.6,161.8,165.4,162.4,164.8z"/>
		<path class="st1" d="M175.5,156.1c0.7-0.4,1.5-0.6,2.4-0.6v4.3h-1.1c-1,0-1.8,0.2-2.3,0.7c-0.5,0.4-0.8,1.2-0.8,2.3v6.2h-4.1
			v-13.4h4.1v2.2C174.2,157.1,174.8,156.5,175.5,156.1z"/>
		<path class="st1" d="M190,158.7c0.5-1,1.2-1.8,2.1-2.4c0.9-0.6,1.9-0.8,3-0.8c0.9,0,1.7,0.2,2.4,0.6c0.7,0.4,1.3,0.9,1.7,1.5v-6.2
			h4.1V169h-4.1v-1.9c-0.4,0.6-0.9,1.2-1.6,1.5s-1.5,0.6-2.5,0.6c-1.1,0-2.1-0.3-3-0.9c-0.9-0.6-1.6-1.4-2.1-2.4
			c-0.5-1-0.8-2.3-0.8-3.6S189.5,159.7,190,158.7z M198.4,159.9c-0.6-0.6-1.3-0.9-2.1-0.9c-0.8,0-1.5,0.3-2.1,0.9
			c-0.6,0.6-0.9,1.4-0.9,2.4c0,1,0.3,1.8,0.9,2.4c0.6,0.6,1.3,0.9,2.1,0.9c0.8,0,1.5-0.3,2.1-0.9c0.6-0.6,0.9-1.4,0.9-2.4
			C199.2,161.3,198.9,160.5,198.4,159.9z"/>
		<path class="st1" d="M218.9,163.3h-9.3c0.1,0.8,0.3,1.5,0.8,1.9s1.1,0.7,1.7,0.7c1,0,1.7-0.4,2.1-1.3h4.4
			c-0.2,0.9-0.6,1.7-1.2,2.4c-0.6,0.7-1.3,1.3-2.2,1.7c-0.9,0.4-1.9,0.6-3,0.6c-1.3,0-2.5-0.3-3.5-0.8c-1-0.6-1.8-1.4-2.4-2.4
			c-0.6-1-0.9-2.3-0.9-3.6c0-1.4,0.3-2.6,0.9-3.6c0.6-1,1.4-1.8,2.4-2.4c1-0.6,2.2-0.8,3.5-0.8c1.3,0,2.4,0.3,3.5,0.8
			s1.8,1.3,2.4,2.3c0.6,1,0.9,2.2,0.9,3.5C218.9,162.5,218.9,162.9,218.9,163.3z M214.7,161c0-0.7-0.2-1.3-0.7-1.7
			c-0.5-0.4-1.1-0.6-1.8-0.6c-0.7,0-1.3,0.2-1.7,0.6c-0.5,0.4-0.8,1-0.9,1.7H214.7z"/>
		<path class="st1" d="M231.6,153.6c-0.5-0.4-0.7-0.9-0.7-1.6c0-0.6,0.2-1.2,0.7-1.6s1-0.6,1.8-0.6c0.7,0,1.3,0.2,1.7,0.6
			s0.7,1,0.7,1.6c0,0.6-0.2,1.1-0.7,1.6s-1,0.6-1.7,0.6C232.6,154.2,232,154,231.6,153.6z M235.4,155.6V169h-4.1v-13.4H235.4z"/>
		<path class="st1" d="M250.3,157c0.9,1,1.4,2.4,1.4,4.2v7.8h-4.1v-7.3c0-0.9-0.2-1.6-0.7-2.1c-0.5-0.5-1.1-0.7-1.9-0.7
			c-0.8,0-1.4,0.2-1.9,0.7c-0.5,0.5-0.7,1.2-0.7,2.1v7.3h-4.1v-13.4h4.1v1.8c0.4-0.6,1-1.1,1.7-1.4c0.7-0.3,1.5-0.5,2.4-0.5
			C248.1,155.5,249.3,156,250.3,157z"/>
		<path class="st1" d="M262,165.5v3.5h-2.1c-1.5,0-2.6-0.4-3.5-1.1s-1.2-1.9-1.2-3.6V159h-1.6v-3.4h1.6v-3.3h4.1v3.3h2.7v3.4h-2.7
			v5.4c0,0.4,0.1,0.7,0.3,0.9c0.2,0.2,0.5,0.3,1,0.3H262z"/>
		<path class="st1" d="M276.8,163.3h-9.3c0.1,0.8,0.3,1.5,0.8,1.9s1.1,0.7,1.7,0.7c1,0,1.7-0.4,2.1-1.3h4.4
			c-0.2,0.9-0.6,1.7-1.2,2.4c-0.6,0.7-1.3,1.3-2.2,1.7c-0.9,0.4-1.9,0.6-3,0.6c-1.3,0-2.5-0.3-3.5-0.8c-1-0.6-1.8-1.4-2.4-2.4
			c-0.6-1-0.9-2.3-0.9-3.6c0-1.4,0.3-2.6,0.9-3.6c0.6-1,1.4-1.8,2.4-2.4c1-0.6,2.2-0.8,3.5-0.8c1.3,0,2.4,0.3,3.5,0.8
			s1.8,1.3,2.4,2.3c0.6,1,0.9,2.2,0.9,3.5C276.9,162.5,276.9,162.9,276.8,163.3z M272.7,161c0-0.7-0.2-1.3-0.7-1.7
			c-0.5-0.4-1.1-0.6-1.8-0.6c-0.7,0-1.3,0.2-1.7,0.6c-0.5,0.4-0.8,1-0.9,1.7H272.7z"/>
		<path class="st1" d="M285,156.1c0.7-0.4,1.5-0.6,2.4-0.6v4.3h-1.1c-1,0-1.8,0.2-2.3,0.7c-0.5,0.4-0.8,1.2-0.8,2.3v6.2h-4.1v-13.4
			h4.1v2.2C283.6,157.1,284.2,156.5,285,156.1z"/>
		<path class="st1" d="M296,159h-2.2v10h-4.1v-10h-1.5v-3.4h1.5v-0.4c0-1.6,0.5-2.9,1.4-3.8c0.9-0.9,2.3-1.3,4.2-1.3
			c0.3,0,0.5,0,0.7,0v3.5c-0.8,0-1.3,0.1-1.7,0.3c-0.3,0.3-0.5,0.8-0.5,1.5v0.1h2.2V159z"/>
		<path class="st1" d="M297.9,158.7c0.5-1,1.2-1.8,2.1-2.4c0.9-0.6,1.9-0.8,3-0.8c0.9,0,1.8,0.2,2.5,0.6s1.3,0.9,1.6,1.5v-1.9h4.1
			V169h-4.1v-1.9c-0.4,0.6-1,1.1-1.7,1.5c-0.7,0.4-1.5,0.6-2.5,0.6c-1.1,0-2.1-0.3-3-0.9c-0.9-0.6-1.6-1.4-2.1-2.4
			c-0.5-1-0.8-2.3-0.8-3.6S297.4,159.7,297.9,158.7z M306.3,159.9c-0.6-0.6-1.3-0.9-2.1-0.9c-0.8,0-1.5,0.3-2.1,0.9
			c-0.6,0.6-0.9,1.4-0.9,2.4c0,1,0.3,1.8,0.9,2.4c0.6,0.6,1.3,0.9,2.1,0.9c0.8,0,1.5-0.3,2.1-0.9c0.6-0.6,0.9-1.4,0.9-2.4
			C307.2,161.3,306.9,160.5,306.3,159.9z"/>
		<path class="st1" d="M318.1,165.6h5.8v3.4h-10.4v-3.3l5.6-6.7h-5.5v-3.4h10.2v3.3L318.1,165.6z"/>
	</g>
	<g class="st0">
		<path class="st2" d="M47.2,146.2l-6.4,27.3h-4l6.4-27.3H47.2z"/>
	</g>
</g>
</svg>
