<?xml version="1.0" encoding="utf-8"?>
<!-- Generator: Adobe Illustrator 27.7.0, SVG Export Plug-In . SVG Version: 6.00 Build 0)  -->
<svg version="1.1" id="Capa_1" xmlns="http://www.w3.org/2000/svg" xmlns:xlink="http://www.w3.org/1999/xlink" x="0px" y="0px"
	 viewBox="0 0 160 76" style="enable-background:new 0 0 160 76;" xml:space="preserve">
<style type="text/css">
	.st0{enable-background:new    ;}
	.st1{fill:#FFFFFF;}
</style>
<g id="Grupo_372" transform="translate(-3467 -1524)">
	<g id="Grupo_369">
		<g class="st0">
			<path class="st1" d="M3474.1,1535.2v13c0,1.3,0.3,2.3,1,3c0.6,0.7,1.6,1.1,2.8,1.1c1.2,0,2.2-0.4,2.9-1.1c0.7-0.7,1-1.7,1-3v-13
				h5.3v13c0,1.9-0.4,3.6-1.2,4.9s-1.9,2.4-3.3,3c-1.4,0.7-3,1-4.7,1s-3.2-0.3-4.6-1c-1.4-0.7-2.4-1.7-3.2-3c-0.8-1.4-1.2-3-1.2-4.9
				v-13H3474.1z M3481.5,1530.9l-7.5,3.1v-3.7l7.5-3.6V1530.9z"/>
			<path class="st1" d="M3496.1,1534.1v22.9h-5.3v-22.9H3496.1z"/>
			<path class="st1" d="M3509.6,1552.5v4.5h-2.7c-1.9,0-3.4-0.5-4.5-1.4c-1.1-0.9-1.6-2.5-1.6-4.6v-6.9h-2.1v-4.4h2.1v-4.2h5.3v4.2
				h3.5v4.4h-3.5v6.9c0,0.5,0.1,0.9,0.4,1.1s0.7,0.3,1.2,0.3H3509.6z"/>
			<path class="st1" d="M3512.9,1537.1c-0.6-0.5-0.9-1.2-0.9-2c0-0.8,0.3-1.5,0.9-2.1c0.6-0.5,1.3-0.8,2.3-0.8
				c0.9,0,1.7,0.3,2.2,0.8c0.6,0.5,0.9,1.2,0.9,2.1c0,0.8-0.3,1.5-0.9,2c-0.6,0.5-1.3,0.8-2.2,0.8
				C3514.2,1537.9,3513.5,1537.6,3512.9,1537.1z M3517.8,1539.7v17.3h-5.3v-17.3H3517.8z"/>
			<path class="st1" d="M3548.9,1541.5c1.3,1.3,1.9,3.1,1.9,5.4v10.1h-5.3v-9.4c0-1.1-0.3-2-0.9-2.6s-1.4-0.9-2.4-0.9
				c-1,0-1.8,0.3-2.4,0.9c-0.6,0.6-0.9,1.5-0.9,2.6v9.4h-5.3v-9.4c0-1.1-0.3-2-0.9-2.6c-0.6-0.6-1.4-0.9-2.4-0.9
				c-1,0-1.8,0.3-2.4,0.9s-0.9,1.5-0.9,2.6v9.4h-5.3v-17.3h5.3v2.2c0.5-0.7,1.2-1.3,2.1-1.7c0.9-0.4,1.8-0.6,2.9-0.6
				c1.3,0,2.5,0.3,3.5,0.8c1,0.6,1.8,1.4,2.4,2.4c0.6-1,1.4-1.7,2.4-2.3c1-0.6,2.2-0.9,3.4-0.9
				C3545.9,1539.5,3547.6,1540.2,3548.9,1541.5z"/>
			<path class="st1" d="M3557.8,1556.2c-1.4-0.7-2.4-1.8-3.2-3.1c-0.8-1.3-1.2-2.9-1.2-4.7c0-1.8,0.4-3.3,1.2-4.7
				c0.8-1.4,1.9-2.4,3.2-3.1s2.9-1.1,4.6-1.1s3.2,0.4,4.6,1.1s2.4,1.8,3.2,3.1c0.8,1.4,1.2,2.9,1.2,4.7c0,1.8-0.4,3.3-1.2,4.7
				c-0.8,1.4-1.9,2.4-3.3,3.1c-1.4,0.7-2.9,1.1-4.6,1.1C3560.7,1557.2,3559.1,1556.9,3557.8,1556.2z M3564.9,1551.5
				c0.7-0.7,1.1-1.8,1.1-3.2c0-1.4-0.3-2.4-1-3.2c-0.7-0.7-1.5-1.1-2.6-1.1c-1,0-1.9,0.4-2.6,1.1s-1,1.8-1,3.2c0,1.4,0.3,2.4,1,3.2
				s1.5,1.1,2.5,1.1C3563.4,1552.7,3564.2,1552.3,3564.9,1551.5z"/>
			<path class="st1" d="M3577.2,1556.5c-1.2-0.5-2.1-1.2-2.8-2.1c-0.7-0.9-1.1-1.9-1.1-3h5.2c0.1,0.6,0.3,1.1,0.8,1.5
				s1.1,0.6,1.8,0.6c0.7,0,1.2-0.1,1.5-0.4c0.4-0.3,0.5-0.6,0.5-1c0-0.5-0.3-0.9-0.8-1.1s-1.4-0.5-2.5-0.8c-1.2-0.3-2.3-0.6-3.1-0.9
				s-1.5-0.8-2.1-1.5c-0.6-0.7-0.9-1.6-0.9-2.8c0-1,0.3-1.9,0.8-2.7c0.5-0.8,1.4-1.5,2.4-1.9c1.1-0.5,2.3-0.7,3.8-0.7
				c2.2,0,3.9,0.5,5.1,1.6c1.2,1.1,2,2.5,2.2,4.3h-4.9c-0.1-0.6-0.3-1.1-0.8-1.4s-1-0.5-1.8-0.5c-0.6,0-1.1,0.1-1.4,0.4
				c-0.3,0.2-0.5,0.6-0.5,1c0,0.5,0.3,0.9,0.8,1.1c0.5,0.2,1.3,0.5,2.5,0.7c1.3,0.3,2.3,0.7,3.1,1c0.8,0.3,1.5,0.8,2.1,1.5
				c0.6,0.7,0.9,1.7,0.9,2.9c0,1-0.3,1.9-0.9,2.7c-0.6,0.8-1.4,1.4-2.4,1.9c-1.1,0.5-2.3,0.7-3.7,0.7
				C3579.8,1557.2,3578.4,1557,3577.2,1556.5z"/>
		</g>
		<g class="st0">
			<path class="st1" d="M3484.6,1577.7c-0.6,1-1.5,1.9-2.7,2.5c-1.2,0.6-2.7,1-4.5,1h-3.3v7.8h-5.3v-21.8h8.6c1.7,0,3.2,0.3,4.4,0.9
				c1.2,0.6,2.1,1.4,2.7,2.5c0.6,1.1,0.9,2.3,0.9,3.6C3485.5,1575.5,3485.2,1576.7,3484.6,1577.7z M3479.4,1576.3
				c0.5-0.5,0.7-1.1,0.7-2s-0.2-1.5-0.7-2c-0.5-0.5-1.3-0.7-2.3-0.7h-2.9v5.5h2.9C3478.1,1577,3478.9,1576.7,3479.4,1576.3z"/>
			<path class="st1" d="M3495.9,1572.3c0.9-0.5,2-0.8,3.1-0.8v5.6h-1.5c-1.3,0-2.3,0.3-3,0.9c-0.7,0.6-1,1.6-1,3v8h-5.3v-17.3h5.3
				v2.9C3494.2,1573.6,3495,1572.9,3495.9,1572.3z"/>
			<path class="st1" d="M3504.8,1588.2c-1.4-0.7-2.4-1.8-3.2-3.1c-0.8-1.3-1.2-2.9-1.2-4.7c0-1.8,0.4-3.3,1.2-4.7
				c0.8-1.4,1.9-2.4,3.2-3.1c1.4-0.7,2.9-1.1,4.6-1.1c1.7,0,3.2,0.4,4.6,1.1c1.4,0.7,2.4,1.8,3.2,3.1c0.8,1.4,1.2,2.9,1.2,4.7
				c0,1.8-0.4,3.3-1.2,4.7s-1.9,2.4-3.3,3.1c-1.4,0.7-2.9,1.1-4.6,1.1C3507.7,1589.2,3506.2,1588.9,3504.8,1588.2z M3512,1583.5
				c0.7-0.7,1.1-1.8,1.1-3.2c0-1.4-0.3-2.4-1-3.2c-0.7-0.7-1.5-1.1-2.6-1.1c-1,0-1.9,0.4-2.6,1.1c-0.7,0.7-1,1.8-1,3.2
				c0,1.4,0.3,2.4,1,3.2c0.7,0.7,1.5,1.1,2.5,1.1C3510.4,1584.7,3511.3,1584.3,3512,1583.5z"/>
			<path class="st1" d="M3539,1571.7l-10.8,25.5h-5.7l4-8.8l-7-16.7h5.9l4,10.8l4-10.8H3539z"/>
			<path class="st1" d="M3557.1,1581.6h-12c0.1,1.1,0.4,1.9,1,2.5s1.4,0.9,2.2,0.9c1.3,0,2.2-0.6,2.8-1.7h5.6
				c-0.3,1.1-0.8,2.2-1.6,3.1c-0.8,0.9-1.7,1.6-2.8,2.1c-1.1,0.5-2.4,0.8-3.8,0.8c-1.7,0-3.2-0.4-4.5-1.1c-1.3-0.7-2.4-1.8-3.1-3.1
				c-0.7-1.3-1.1-2.9-1.1-4.7c0-1.8,0.4-3.4,1.1-4.7c0.7-1.3,1.8-2.4,3.1-3.1c1.3-0.7,2.8-1.1,4.6-1.1c1.7,0,3.2,0.4,4.5,1.1
				c1.3,0.7,2.3,1.7,3.1,3c0.7,1.3,1.1,2.8,1.1,4.6C3557.2,1580.6,3557.1,1581.1,3557.1,1581.6z M3551.8,1578.7
				c0-0.9-0.3-1.6-0.9-2.2c-0.6-0.5-1.4-0.8-2.3-0.8c-0.9,0-1.6,0.3-2.2,0.8c-0.6,0.5-1,1.3-1.1,2.2H3551.8z"/>
			<path class="st1" d="M3560,1575.6c0.7-1.3,1.8-2.4,3.1-3.1c1.3-0.7,2.8-1.1,4.5-1.1c2.2,0,4,0.6,5.4,1.7c1.5,1.1,2.4,2.7,2.9,4.8
				h-5.6c-0.5-1.3-1.4-2-2.8-2c-1,0-1.7,0.4-2.3,1.1c-0.6,0.8-0.9,1.8-0.9,3.2c0,1.4,0.3,2.5,0.9,3.2c0.6,0.8,1.4,1.1,2.3,1.1
				c1.4,0,2.3-0.7,2.8-2h5.6c-0.5,2-1.4,3.6-2.9,4.8c-1.5,1.2-3.3,1.7-5.4,1.7c-1.7,0-3.2-0.4-4.5-1.1c-1.3-0.7-2.3-1.8-3.1-3.1
				c-0.7-1.3-1.1-2.9-1.1-4.7C3558.9,1578.6,3559.3,1577,3560,1575.6z"/>
			<path class="st1" d="M3588.4,1584.5v4.5h-2.7c-1.9,0-3.4-0.5-4.5-1.4s-1.6-2.5-1.6-4.6v-6.9h-2.1v-4.4h2.1v-4.2h5.3v4.2h3.5v4.4
				h-3.5v6.9c0,0.5,0.1,0.9,0.4,1.1s0.7,0.3,1.2,0.3H3588.4z"/>
			<path class="st1" d="M3594.6,1588.2c-1.4-0.7-2.4-1.8-3.2-3.1c-0.8-1.3-1.2-2.9-1.2-4.7c0-1.8,0.4-3.3,1.2-4.7
				c0.8-1.4,1.9-2.4,3.2-3.1c1.4-0.7,2.9-1.1,4.6-1.1c1.7,0,3.2,0.4,4.6,1.1c1.4,0.7,2.4,1.8,3.2,3.1c0.8,1.4,1.2,2.9,1.2,4.7
				c0,1.8-0.4,3.3-1.2,4.7s-1.9,2.4-3.3,3.1s-2.9,1.1-4.6,1.1S3596,1588.9,3594.6,1588.2z M3601.8,1583.5c0.7-0.7,1.1-1.8,1.1-3.2
				c0-1.4-0.3-2.4-1-3.2c-0.7-0.7-1.5-1.1-2.6-1.1c-1,0-1.9,0.4-2.6,1.1s-1,1.8-1,3.2c0,1.4,0.3,2.4,1,3.2s1.5,1.1,2.5,1.1
				S3601.1,1584.3,3601.8,1583.5z"/>
			<path class="st1" d="M3614.1,1588.5c-1.2-0.5-2.1-1.2-2.8-2.1c-0.7-0.9-1.1-1.9-1.1-3h5.2c0.1,0.6,0.3,1.1,0.8,1.5
				s1.1,0.6,1.8,0.6c0.7,0,1.2-0.1,1.5-0.4c0.4-0.3,0.5-0.6,0.5-1c0-0.5-0.3-0.9-0.8-1.1s-1.4-0.5-2.5-0.8c-1.2-0.3-2.3-0.6-3.1-0.9
				c-0.8-0.3-1.5-0.8-2.1-1.5c-0.6-0.7-0.9-1.6-0.9-2.8c0-1,0.3-1.9,0.8-2.7s1.4-1.5,2.4-1.9c1.1-0.5,2.3-0.7,3.8-0.7
				c2.2,0,3.9,0.5,5.1,1.6c1.3,1.1,2,2.5,2.2,4.3h-4.9c-0.1-0.6-0.3-1.1-0.8-1.4s-1-0.5-1.8-0.5c-0.6,0-1.1,0.1-1.4,0.4
				c-0.3,0.2-0.5,0.6-0.5,1c0,0.5,0.3,0.9,0.8,1.1s1.3,0.5,2.5,0.7c1.3,0.3,2.3,0.7,3.1,1s1.5,0.8,2.1,1.5s0.9,1.7,0.9,2.9
				c0,1-0.3,1.9-0.9,2.7c-0.6,0.8-1.4,1.4-2.4,1.9c-1.1,0.5-2.3,0.7-3.7,0.7C3616.6,1589.2,3615.2,1589,3614.1,1588.5z"/>
		</g>
	</g>
</g>
</svg>
